<svg width="24" height="24" viewBox="0 0 24 24" fill="none" xmlns="http://www.w3.org/2000/svg">
<g clip-path="url(#clip0_198_201)">
<path d="M24 24H5.5V23H23V5.5H24V24Z" fill="#DAAEA8"/>
<path d="M22 22H2.5V21H21V2.5H22V22Z" fill="#DAAEA8"/>
<path d="M19 1V19H1V1H19ZM20 0H0V20H20V0Z" fill="#DAAEA8"/>
<path d="M4.9285 15.7575L4.071 15.243L7.071 10.243C7.1545 10.1045 7.3 10.014 7.461 10.002C7.6245 9.98801 7.7805 10.056 7.8835 10.1805L9.955 12.666L13.5835 7.22301C13.6875 7.06701 13.8705 6.98301 14.0565 7.00351C14.243 7.02501 14.4015 7.14901 14.4675 7.32501L17.4675 15.325L16.531 15.676L13.874 8.59001L10.4155 13.7775C10.328 13.909 10.1835 13.991 10.026 13.9995C9.869 14.006 9.716 13.9415 9.6155 13.8205L7.566 11.3615L4.9285 15.7575Z" fill="#DAAEA8"/>
<path d="M6 7C4.897 7 4 6.103 4 5C4 3.897 4.897 3 6 3C7.103 3 8 3.897 8 5C8 6.103 7.103 7 6 7ZM6 4C5.4485 4 5 4.4485 5 5C5 5.5515 5.4485 6 6 6C6.5515 6 7 5.5515 7 5C7 4.4485 6.5515 4 6 4Z" fill="#DAAEA8"/>
<path d="M20 15H0V16H20V15Z" fill="#DAAEA8"/>
</g>
<defs>
<clipPath id="clip0_198_201">
<rect width="24" height="24" fill="white"/>
</clipPath>
</defs>
</svg>
