<svg width="18" height="18" viewBox="0 0 18 18" fill="none" xmlns="http://www.w3.org/2000/svg">
<g clip-path="url(#clip0_351_3152)">
<path d="M9 18C13.9706 18 18 13.9706 18 9C18 4.02944 13.9706 0 9 0C4.02944 0 0 4.02944 0 9C0 13.9706 4.02944 18 9 18Z" fill="#FFBF0B"/>
<path d="M5.48438 8.71875C6.64935 8.71875 7.59375 7.77435 7.59375 6.60938C7.59375 5.4444 6.64935 4.5 5.48438 4.5C4.3194 4.5 3.375 5.4444 3.375 6.60938C3.375 7.77435 4.3194 8.71875 5.48438 8.71875Z" fill="white"/>
<path d="M5.48438 7.875C6.18336 7.875 6.75 7.30836 6.75 6.60938C6.75 5.91039 6.18336 5.34375 5.48438 5.34375C4.78539 5.34375 4.21875 5.91039 4.21875 6.60938C4.21875 7.30836 4.78539 7.875 5.48438 7.875Z" fill="#1A1A54"/>
<path d="M15.0187 6.83438C14.6531 6.72188 14.2593 6.58125 13.9218 6.49688C13.5843 6.4125 13.2468 6.35625 12.9093 6.32813C12.5718 6.32813 12.2625 6.32813 11.925 6.44063C11.7562 6.46875 11.5875 6.525 11.3906 6.58125C11.1937 6.6375 11.025 6.72188 10.8281 6.77813H10.7718C10.6312 6.80625 10.4906 6.72188 10.4625 6.60938C10.4343 6.55313 10.4625 6.46875 10.4906 6.4125C10.6031 6.21563 10.7437 6.01875 10.9125 5.85C11.0812 5.68125 11.2781 5.5125 11.475 5.4C11.8968 5.14688 12.4312 5.00625 12.9375 5.00625C13.4437 5.00625 13.95 5.14688 14.3718 5.4C14.7937 5.65313 15.1593 5.93438 15.4125 6.38438C15.4968 6.525 15.4687 6.72188 15.3 6.80625C15.2156 6.8625 15.1312 6.8625 15.0468 6.83438H15.0187Z" fill="#1A1A54"/>
<path d="M9.19689 9.95625C9.47814 10.0688 9.64689 10.2094 9.84377 10.3781C10.0125 10.5469 10.1813 10.7438 10.3219 11.025C10.3781 11.1656 10.4344 11.3062 10.4625 11.475C10.4906 11.6437 10.4625 11.8406 10.3781 12.0094C10.2375 12.375 9.98439 12.6 9.75939 12.7406L9.73127 11.7C9.87189 11.7844 9.98439 11.8688 10.125 12.0094C10.2375 12.1219 10.35 12.2906 10.4344 12.4875C10.4906 12.6844 10.5188 12.8813 10.4906 13.05C10.4625 13.2188 10.4063 13.3875 10.35 13.5C10.2094 13.7813 10.0406 13.9781 9.87189 14.1469C9.67502 14.3156 9.47814 14.4844 9.25314 14.625C9.08439 14.7094 8.85939 14.6531 8.77502 14.4844C8.69064 14.3437 8.74689 14.1469 8.85939 14.0344L8.88752 14.0062C9.02814 13.8937 9.14064 13.7531 9.25314 13.6125C9.36564 13.4719 9.45002 13.3031 9.47814 13.1344C9.50627 12.9938 9.47814 12.8813 9.45002 12.8531C9.42189 12.825 9.33752 12.7688 9.19689 12.7125C8.91564 12.6 8.77502 12.2906 8.85939 12.0094C8.91564 11.8688 9.02814 11.7562 9.16877 11.7C9.30939 11.6437 9.39377 11.5875 9.42189 11.5594C9.45002 11.5312 9.47814 11.475 9.45002 11.3344C9.42189 11.2219 9.33752 11.0531 9.25314 10.9125C9.16877 10.7719 9.00002 10.6312 8.91564 10.575L8.85939 10.5469C8.69064 10.4344 8.66252 10.2094 8.77502 10.0406C8.88752 9.95625 9.05627 9.9 9.19689 9.95625Z" fill="#1A1A54"/>
<path d="M17.6906 10.7156C18.1406 9.81562 18.1688 8.775 17.4375 8.04375C16.7063 7.3125 15.2719 7.45312 14.7656 8.49375C14.2875 7.48125 12.825 7.3125 12.0938 8.04375C11.3625 8.775 11.25 9.675 11.7281 10.6312C12.5438 12.2906 13.9781 13.1062 14.5406 13.3594C14.6813 13.4156 14.85 13.4156 14.9906 13.3594C15.525 13.0781 16.9031 12.2625 17.6906 10.7156Z" fill="#DC2863"/>
</g>
<defs>
<clipPath id="clip0_351_3152">
<rect width="18" height="18" fill="white"/>
</clipPath>
</defs>
</svg>
