<svg width="48" height="48" viewBox="0 0 48 48" fill="none" xmlns="http://www.w3.org/2000/svg">
<path d="M12.0503 36.048C11.8989 36.0476 11.7499 36.0104 11.6161 35.9397C11.4822 35.8689 11.3676 35.7666 11.2821 35.6416C11.1966 35.5167 11.1428 35.3728 11.1253 35.2224C11.1077 35.072 11.1271 34.9197 11.1815 34.7784L15.3335 24.024C15.3384 24.0075 15.3384 23.99 15.3335 23.9736L11.1815 13.2216C11.1144 13.0479 11.1006 12.8582 11.1421 12.6766C11.1836 12.4951 11.2785 12.3302 11.4145 12.203C11.5504 12.0758 11.7213 11.9921 11.9052 11.9628C12.0891 11.9335 12.2775 11.9598 12.4463 12.0384L36.3431 23.1552C36.504 23.2308 36.64 23.3506 36.7353 23.5006C36.8306 23.6506 36.8812 23.8247 36.8812 24.0024C36.8812 24.1801 36.8306 24.3542 36.7353 24.5042C36.64 24.6542 36.504 24.774 36.3431 24.8496L12.4463 35.9616C12.322 36.0182 12.187 36.0477 12.0503 36.048ZM12.0503 12.8136C12.0417 12.814 12.0332 12.8161 12.0254 12.8198C12.0175 12.8235 12.0105 12.8287 12.0047 12.8352C11.9941 12.844 11.9867 12.8561 11.9836 12.8695C11.9806 12.883 11.9821 12.8971 11.9879 12.9096L16.1399 23.664C16.2209 23.8807 16.2209 24.1193 16.1399 24.336L11.9999 35.0904C11.9956 35.1032 11.995 35.1169 11.9983 35.13C12.0016 35.1431 12.0086 35.155 12.0186 35.1641C12.0285 35.1733 12.0409 35.1793 12.0542 35.1816C12.0675 35.1838 12.0812 35.1822 12.0935 35.1768L35.9903 24.0624C36.002 24.0566 36.0118 24.0478 36.0186 24.0367C36.0255 24.0257 36.0291 24.013 36.0291 24C36.0291 23.987 36.0255 23.9743 36.0186 23.9633C36.0118 23.9522 36.002 23.9433 35.9903 23.9376L12.0815 12.8208C12.0717 12.8164 12.0611 12.814 12.0503 12.8136Z" fill="white"/>
<path d="M27.4752 24.432H15.8064C15.6918 24.432 15.5819 24.3865 15.5009 24.3055C15.4199 24.2244 15.3744 24.1146 15.3744 24C15.3744 23.8854 15.4199 23.7755 15.5009 23.6945C15.5819 23.6135 15.6918 23.568 15.8064 23.568H27.4752C27.5898 23.568 27.6996 23.6135 27.7807 23.6945C27.8617 23.7755 27.9072 23.8854 27.9072 24C27.9072 24.1146 27.8617 24.2244 27.7807 24.3055C27.6996 24.3865 27.5898 24.432 27.4752 24.432Z" fill="white"/>
</svg>
