<svg width="18" height="18" viewBox="0 0 18 18" fill="none" xmlns="http://www.w3.org/2000/svg">
<g clip-path="url(#clip0_178_247)">
<path d="M8.09999 0.9C12.0765 0.9 15.3 4.12355 15.3 8.1C15.3 8.27824 15.2935 8.45498 15.2808 8.62997C15.0006 8.48826 14.705 8.37241 14.3973 8.28557C14.3991 8.22393 14.4 8.16207 14.4 8.1C14.4 4.62061 11.5794 1.8 8.09999 1.8C4.6206 1.8 1.79999 4.62061 1.79999 8.1C1.79999 11.5794 4.6206 14.4 8.09999 14.4C8.16207 14.4 8.22392 14.3991 8.28556 14.3973C8.37241 14.705 8.48825 15.0006 8.62997 15.2808C8.45497 15.2935 8.27824 15.3 8.09999 15.3C4.12354 15.3 0.899994 12.0765 0.899994 8.1C0.899994 4.12355 4.12354 0.9 8.09999 0.9Z" fill="white"/>
<path d="M5.53919 10.2846C6.32207 11.0724 7.37816 11.4236 8.40461 11.3372C8.39706 11.3572 8.38968 11.3774 8.38247 11.3977C8.28558 11.6714 8.21208 11.9561 8.16437 12.2495C6.984 12.2663 5.79859 11.8224 4.90078 10.919C4.72561 10.7427 4.72651 10.4577 4.9028 10.2826C5.07908 10.1074 5.364 10.1083 5.53919 10.2846Z" fill="white"/>
<path d="M10.35 5.85C10.8471 5.85 11.25 6.25295 11.25 6.75C11.25 7.24705 10.8471 7.65 10.35 7.65C9.85294 7.65 9.45001 7.24705 9.45001 6.75C9.45001 6.25295 9.85294 5.85 10.35 5.85Z" fill="white"/>
<path d="M5.85001 5.85C6.34706 5.85 6.75001 6.25295 6.75001 6.75C6.75001 7.24705 6.34706 7.65 5.85001 7.65C5.35296 7.65 4.95001 7.24705 4.95001 6.75C4.95001 6.25295 5.35296 5.85 5.85001 5.85Z" fill="white"/>
<path d="M17.1 13.05C17.1 15.2868 15.2868 17.1 13.05 17.1C10.8132 17.1 9 15.2868 9 13.05C9 10.8132 10.8132 9 13.05 9C15.2868 9 17.1 10.8132 17.1 13.05ZM13.5 11.25C13.5 11.0015 13.2985 10.8 13.05 10.8C12.8015 10.8 12.6 11.0015 12.6 11.25V12.6H11.25C11.0015 12.6 10.8 12.8015 10.8 13.05C10.8 13.2985 11.0015 13.5 11.25 13.5H12.6V14.85C12.6 15.0985 12.8015 15.3 13.05 15.3C13.2985 15.3 13.5 15.0985 13.5 14.85V13.5H14.85C15.0985 13.5 15.3 13.2985 15.3 13.05C15.3 12.8015 15.0985 12.6 14.85 12.6H13.5V11.25Z" fill="white"/>
</g>
<defs>
<clipPath id="clip0_178_247">
<rect width="18" height="18" rx="2" fill="white"/>
</clipPath>
</defs>
</svg>
