<svg width="6" height="2" viewBox="0 0 6 2" fill="none" xmlns="http://www.w3.org/2000/svg">
<path d="M5.01875 1.83438C4.65313 1.72188 4.25938 1.58125 3.92188 1.49688C3.58438 1.4125 3.24688 1.35625 2.90938 1.32813C2.57188 1.32813 2.2625 1.32813 1.925 1.44063C1.75625 1.46875 1.5875 1.525 1.39063 1.58125C1.19375 1.6375 1.025 1.72188 0.828126 1.77813H0.771876C0.631251 1.80625 0.490626 1.72188 0.462501 1.60938C0.434376 1.55313 0.462501 1.46875 0.490626 1.4125C0.603126 1.21563 0.743751 1.01875 0.912501 0.85C1.08125 0.68125 1.27813 0.512501 1.475 0.400001C1.89688 0.146876 2.43125 0.00625038 2.9375 0.00625038C3.44375 0.00625038 3.95 0.146876 4.37188 0.400001C4.79375 0.653126 5.15938 0.934376 5.4125 1.38438C5.49688 1.525 5.46875 1.72188 5.3 1.80625C5.21563 1.8625 5.13125 1.8625 5.04688 1.83438H5.01875Z" fill="#1A1A54"/>
</svg>
