<svg width="3" height="6" viewBox="0 0 3 6" fill="none" xmlns="http://www.w3.org/2000/svg">
<path d="M1.19688 0.95625C1.47813 1.06875 1.64688 1.20938 1.84375 1.37813C2.0125 1.54688 2.18125 1.74375 2.32188 2.025C2.37813 2.16563 2.43438 2.30625 2.4625 2.475C2.49063 2.64375 2.4625 2.84063 2.37813 3.00938C2.2375 3.375 1.98438 3.6 1.75938 3.74062L1.73125 2.7C1.87188 2.78437 1.98438 2.86875 2.125 3.00938C2.2375 3.12188 2.35 3.29063 2.43438 3.4875C2.49063 3.68438 2.51875 3.88125 2.49063 4.05C2.4625 4.21875 2.40625 4.3875 2.35 4.5C2.20938 4.78125 2.04063 4.97812 1.87188 5.14687C1.675 5.31562 1.47813 5.48437 1.25313 5.625C1.08438 5.70937 0.859379 5.65312 0.775004 5.48437C0.690629 5.34375 0.746879 5.14688 0.859379 5.03438L0.887504 5.00625C1.02813 4.89375 1.14063 4.75313 1.25313 4.6125C1.36563 4.47188 1.45 4.30313 1.47813 4.13438C1.50625 3.99375 1.47813 3.88125 1.45 3.85313C1.42188 3.825 1.3375 3.76875 1.19688 3.7125C0.915629 3.6 0.775004 3.29063 0.859379 3.00938C0.915629 2.86875 1.02813 2.75625 1.16875 2.7C1.30938 2.64375 1.39375 2.5875 1.42188 2.55937C1.45 2.53125 1.47813 2.475 1.45 2.33437C1.42188 2.22187 1.3375 2.05312 1.25313 1.9125C1.16875 1.77187 1 1.63125 0.915629 1.575L0.859379 1.54688C0.690629 1.43438 0.662504 1.20938 0.775004 1.04063C0.887504 0.95625 1.05625 0.9 1.19688 0.95625Z" fill="#1A1A54"/>
</svg>
