<svg width="48" height="48" viewBox="0 0 48 48" fill="none" xmlns="http://www.w3.org/2000/svg">
<circle cx="24" cy="24" r="24" fill="#0C1521" fill-opacity="0.87"/>
<g clip-path="url(#clip0_203_1065)">
<path d="M36 36H17.5V35H35V17.5H36V36Z" fill="#DAAEA8"/>
<path d="M34 34H14.5V33H33V14.5H34V34Z" fill="#DAAEA8"/>
<path d="M31 13V31H13V13H31ZM32 12H12V32H32V12Z" fill="#DAAEA8"/>
<path d="M16.9285 27.7575L16.071 27.243L19.071 22.243C19.1545 22.1045 19.3 22.014 19.461 22.002C19.6245 21.988 19.7805 22.056 19.8835 22.1805L21.955 24.666L25.5835 19.223C25.6875 19.067 25.8705 18.983 26.0565 19.0035C26.243 19.025 26.4015 19.149 26.4675 19.325L29.4675 27.325L28.531 27.676L25.874 20.59L22.4155 25.7775C22.328 25.909 22.1835 25.991 22.026 25.9995C21.869 26.006 21.716 25.9415 21.6155 25.8205L19.566 23.3615L16.9285 27.7575Z" fill="#DAAEA8"/>
<path d="M18 19C16.897 19 16 18.103 16 17C16 15.897 16.897 15 18 15C19.103 15 20 15.897 20 17C20 18.103 19.103 19 18 19ZM18 16C17.4485 16 17 16.4485 17 17C17 17.5515 17.4485 18 18 18C18.5515 18 19 17.5515 19 17C19 16.4485 18.5515 16 18 16Z" fill="#DAAEA8"/>
<path d="M32 27H12V28H32V27Z" fill="#DAAEA8"/>
</g>
<defs>
<clipPath id="clip0_203_1065">
<rect width="24" height="24" fill="white" transform="translate(12 12)"/>
</clipPath>
</defs>
</svg>
