<svg width="37" height="34" viewBox="0 0 37 34" fill="none" xmlns="http://www.w3.org/2000/svg">
<mask id="mask0_510_31" style="mask-type:alpha" maskUnits="userSpaceOnUse" x="2" y="2" width="35" height="32">
<path d="M34.6375 17.7139C34.6375 25.2978 27.8594 31.6733 19.2045 31.6733C10.5497 31.6733 3.77155 25.2978 3.77155 17.7139C3.77155 10.13 10.5497 3.75452 19.2045 3.75452C27.8594 3.75452 34.6375 10.13 34.6375 17.7139Z" fill="#D9D9D9" stroke="white" stroke-width="3"/>
</mask>
<g mask="url(#mask0_510_31)">
</g>
<path d="M10.5252 14.5701C10.3881 14.2975 10.2553 14.0215 10.1278 13.7446C9.87793 13.203 9.64383 12.6484 9.53901 12.0614C9.19922 10.1676 10.1784 8.10264 11.5839 6.88847C13.5842 5.16155 16.4179 4.50904 18.6217 2.97691C18.4996 3.73004 18.097 4.40907 17.4949 4.87766C18.5265 4.08277 21.6004 5.39216 22.5612 5.88307C24.1544 6.68521 25.5083 7.89268 26.4868 9.38408C25.4495 8.96239 24.3203 8.8179 23.2102 8.96479C24.0733 9.80074 24.9712 10.6926 25.2979 11.8474C23.7492 10.731 21.2763 11.2682 20.3329 12.9323C19.7276 13.9979 19.7363 15.296 19.3721 16.4673C18.9877 17.7077 17.9509 18.4956 16.7315 18.8258C15.8125 19.0774 14.0044 19.1909 13.1719 18.6511C12.9195 18.4878 12.7352 18.2379 12.5657 17.9916C11.8047 16.9013 11.1228 15.7578 10.5252 14.5701Z" fill="#DAAEA8"/>
<path d="M11.4887 16.4018C12.3088 16.4018 12.9736 15.737 12.9736 14.9169C12.9736 14.0967 12.3088 13.4319 11.4887 13.4319C10.6686 13.4319 10.0037 14.0967 10.0037 14.9169C10.0037 15.737 10.6686 16.4018 11.4887 16.4018Z" fill="#845161"/>
<path d="M12.0005 16.2271C12.7724 16.2271 13.3982 15.6014 13.3982 14.8295C13.3982 14.0576 12.7724 13.4319 12.0005 13.4319C11.2287 13.4319 10.6029 14.0576 10.6029 14.8295C10.6029 15.6014 11.2287 16.2271 12.0005 16.2271Z" fill="#69303A"/>
<path d="M25.6036 25.6811C22.7651 27.8666 19.2795 29.0445 15.6971 29.0287C12.1147 29.0129 8.6396 27.8043 5.8205 25.5937L10.071 23.6012C10.2734 23.5061 10.4677 23.3945 10.6519 23.2676C10.7078 23.2291 10.7637 23.1889 10.8169 23.147C11.2795 22.7931 11.6603 22.3435 11.9333 21.8289C12.2827 21.1694 12.398 20.4409 12.4032 19.6984C12.4032 19.453 12.398 19.2066 12.391 18.9603C12.384 18.714 12.3735 18.4528 12.3709 18.1986C12.3674 17.922 12.3645 17.6451 12.3622 17.3679L12.5369 17.4553L12.9911 17.6902L13.2016 17.726L15.6369 18.1401L18.3553 18.603L18.4374 21.3983L18.4715 22.5591L18.4776 22.7557V22.7845L19.5345 23.2143L25.6036 25.6811Z" fill="#845161"/>
<path d="M18.4697 22.553L18.3352 22.567C17.6857 22.624 17.0316 22.539 16.4181 22.318C15.8047 22.0971 15.2467 21.7454 14.7827 21.2873L12.3735 18.4476C12.3657 18.1942 12.3735 18.4476 12.3735 18.1934C12.37 17.9168 12.3671 17.6399 12.3648 17.3627L12.5395 17.45L12.9937 17.685L13.2042 17.7208L15.6396 18.1348L18.3579 18.5978L18.44 21.393L18.4697 22.553Z" fill="#69303A"/>
<path d="M12.2451 12.147C11.9727 12.3879 11.7975 12.7199 11.7525 13.0807C11.5699 14.7867 12.2015 16.8001 12.377 18.5087L15.5583 20.8549C16.0807 21.2451 16.6816 21.517 17.3194 21.6519C17.9573 21.7867 18.6168 21.7813 19.2524 21.6359C19.7651 21.5144 20.0901 21.4358 20.3216 21.0244C20.7688 20.2383 21.8668 17.5487 21.9384 15.6515C21.9585 15.1125 21.9454 14.2914 21.6135 13.8328C21.4519 13.6101 21.3689 13.6048 21.4274 13.2904C21.4877 12.9619 21.5742 12.637 21.6467 12.3112C21.752 11.8399 21.7815 11.3548 21.734 10.8743C21.686 10.4375 21.6877 10.0497 21.6414 9.60507C21.6187 9.38931 21.5226 8.44505 21.5226 8.44505C20.968 9.28012 19.9669 9.71862 19.041 10.0069C17.7814 10.3982 16.4703 10.5895 15.1932 10.9179C14.3468 11.1389 12.978 11.4534 12.2451 12.147Z" fill="#845161"/>
<path d="M16.0195 13.4633C16.5524 13.4677 16.5524 14.2827 16.0195 14.2871H15.996C15.4623 14.2827 15.4623 13.4677 15.996 13.4633H16.0195Z" fill="#00214E"/>
<path d="M20.622 13.2144C21.1173 13.2144 21.1173 13.9743 20.622 13.9787H20.6002C20.1058 13.9743 20.1058 13.2179 20.6002 13.2144H20.622Z" fill="#00214E"/>
<path d="M16.41 17.3897C16.8296 17.8586 17.405 18.1593 18.0295 18.2362" stroke="#00214E" stroke-width="2.18376" stroke-miterlimit="10"/>
<path d="M14.7792 12.4859C15.5877 12.3182 16.4195 12.2946 17.2363 12.416" stroke="#DAAEA8" stroke-width="2.18376" stroke-miterlimit="10"/>
<path d="M19.9372 12.4911C20.4366 12.3758 20.951 12.3401 21.4615 12.3854" stroke="#DAAEA8" stroke-width="2.18376" stroke-miterlimit="10"/>
<path d="M25.6036 25.6811C22.7651 27.8666 19.2795 29.0445 15.6971 29.0287C12.1147 29.0129 8.6396 27.8043 5.8205 25.5937L10.071 23.6012C10.2734 23.5061 10.4677 23.3945 10.6519 23.2676C10.7078 23.2291 10.7637 23.1889 10.8169 23.147C12.8741 24.611 15.6815 25.5343 18.1098 24.4416C18.6881 24.1795 19.2192 23.7567 19.5337 23.2134L25.6036 25.6811Z" fill="#DE8276"/>
<path d="M17.487 15.9196C17.4239 15.9519 17.3745 16.0057 17.3476 16.0713C17.3207 16.1369 17.3181 16.21 17.3404 16.2773C17.3626 16.3446 17.4082 16.4017 17.4689 16.4383C17.5296 16.4749 17.6014 16.4886 17.6713 16.4769" stroke="#00214E" stroke-width="2.18376" stroke-miterlimit="10"/>
<path d="M18.8331 13.383C19.0506 14.2172 19.2314 15.0426 19.4384 15.8786C19.4627 15.9553 19.4716 16.036 19.4647 16.1162C19.4271 16.3564 19.1415 16.4551 18.9039 16.5066" stroke="#00214E" stroke-width="2.18376" stroke-miterlimit="10"/>
</svg>
