<svg width="16" height="16" viewBox="0 0 16 16" fill="none" xmlns="http://www.w3.org/2000/svg">
<mask id="mask0_169_318" style="mask-type:alpha" maskUnits="userSpaceOnUse" x="0" y="1" width="16" height="15">
<circle cx="8.07476" cy="8.2243" r="5.67757" fill="#D9D9D9" stroke="white" stroke-width="3"/>
</mask>
<g mask="url(#mask0_169_318)">
</g>
<path d="M5.18511 7.28504C5.11654 7.14877 5.05016 7.01076 4.98639 6.87231C4.86148 6.60152 4.74443 6.32418 4.69202 6.03069C4.52212 5.08381 5.01172 4.05132 5.71446 3.44424C6.71462 2.58078 8.13145 2.25452 9.23338 1.48846C9.1723 1.86502 8.97103 2.20454 8.66996 2.43883C9.18577 2.04139 10.7227 2.69608 11.2031 2.94153C11.9997 3.3426 12.6767 3.94634 13.1659 4.69204C12.6473 4.4812 12.0827 4.40895 11.5276 4.4824C11.9591 4.90037 12.4081 5.34629 12.5715 5.92368C11.7971 5.36551 10.5607 5.63411 10.089 6.46613C9.7863 6.99897 9.79067 7.64798 9.60855 8.23367C9.41638 8.85385 8.89795 9.24781 8.28824 9.4129C7.82878 9.53868 6.9247 9.59546 6.50848 9.32555C6.38225 9.24388 6.2901 9.11896 6.20537 8.9958C5.82489 8.45063 5.48393 7.87891 5.18511 7.28504Z" fill="#DAAEA8"/>
<path d="M5.66686 8.20091C6.07692 8.20091 6.40934 7.86849 6.40934 7.45843C6.40934 7.04837 6.07692 6.71595 5.66686 6.71595C5.2568 6.71595 4.92438 7.04837 4.92438 7.45843C4.92438 7.86849 5.2568 8.20091 5.66686 8.20091Z" fill="#845161"/>
<path d="M5.9228 8.11356C6.30874 8.11356 6.62161 7.80069 6.62161 7.41475C6.62161 7.02882 6.30874 6.71595 5.9228 6.71595C5.53686 6.71595 5.224 7.02882 5.224 7.41475C5.224 7.80069 5.53686 8.11356 5.9228 8.11356Z" fill="#69303A"/>
<path d="M12.7243 12.8405C11.3051 13.9333 9.56227 14.5223 7.77106 14.5143C5.97986 14.5064 4.24231 13.9021 2.83276 12.7969L4.958 11.8006C5.05921 11.753 5.15635 11.6972 5.24844 11.6338C5.2764 11.6146 5.30435 11.5945 5.33099 11.5735C5.56229 11.3965 5.75268 11.1717 5.88916 10.9144C6.06386 10.5847 6.12151 10.2204 6.12413 9.84921C6.12413 9.72648 6.12151 9.60332 6.11802 9.48015C6.11452 9.35699 6.10928 9.2264 6.10797 9.0993C6.10623 8.961 6.10477 8.82255 6.1036 8.68395L6.19096 8.72763L6.41807 8.84511L6.52332 8.86302L7.74099 9.07004L9.10017 9.30152L9.14122 10.6991L9.15825 11.2796L9.16131 11.3778V11.3923L9.68978 11.6071L12.7243 12.8405Z" fill="#845161"/>
<path d="M9.15738 11.2765L9.09012 11.2835C8.76537 11.312 8.4383 11.2695 8.13159 11.159C7.82488 11.0485 7.54585 10.8727 7.31385 10.6437L6.10929 9.22378C6.10536 9.09712 6.10929 9.22378 6.10929 9.09669C6.10754 8.95838 6.10608 8.81993 6.10492 8.68134L6.19227 8.72501L6.41938 8.8425L6.52464 8.8604L7.74231 9.06742L9.10148 9.2989L9.14253 10.6965L9.15738 11.2765Z" fill="#69303A"/>
<path d="M6.0451 6.07348C5.90889 6.19394 5.82131 6.35995 5.79877 6.54037C5.70749 7.39335 6.02326 8.40007 6.11105 9.25435L7.7017 10.4275C7.96286 10.6226 8.26332 10.7585 8.58225 10.8259C8.90118 10.8934 9.23096 10.8906 9.54873 10.8179C9.8051 10.7572 9.96757 10.7179 10.0833 10.5122C10.3069 10.1191 10.8559 8.77436 10.8917 7.82574C10.9018 7.55626 10.8952 7.14571 10.7293 6.91642C10.6485 6.80505 10.607 6.80242 10.6362 6.64519C10.6664 6.48097 10.7096 6.3185 10.7459 6.15559C10.7985 5.91995 10.8133 5.67742 10.7895 5.43714C10.7655 5.21876 10.7664 5.02484 10.7432 4.80253C10.7319 4.69466 10.6838 4.22253 10.6838 4.22253C10.4065 4.64006 9.90599 4.85931 9.44303 5.00344C8.81324 5.19911 8.15767 5.29475 7.51914 5.45897C7.09593 5.56947 6.41153 5.7267 6.0451 6.07348Z" fill="#845161"/>
<path d="M7.9323 6.73167C8.19872 6.73386 8.19872 7.14135 7.9323 7.14353H7.92051C7.65365 7.14135 7.65365 6.73386 7.92051 6.73167H7.9323Z" fill="#00214E"/>
<path d="M10.2336 6.60719C10.4812 6.60719 10.4812 6.98717 10.2336 6.98935H10.2226C9.97543 6.98717 9.97543 6.60894 10.2226 6.60719H10.2336Z" fill="#00214E"/>
<path d="M8.12753 8.69487C8.33734 8.92929 8.62504 9.07965 8.93727 9.11808" stroke="#00214E" stroke-width="2.18376" stroke-miterlimit="10"/>
<path d="M7.3121 6.24295C7.71639 6.15911 8.13229 6.14728 8.54069 6.20801" stroke="#DAAEA8" stroke-width="2.18376" stroke-miterlimit="10"/>
<path d="M9.89114 6.24556C10.1408 6.18788 10.398 6.17004 10.6533 6.19272" stroke="#DAAEA8" stroke-width="2.18376" stroke-miterlimit="10"/>
<path d="M12.7243 12.8405C11.3051 13.9333 9.56227 14.5223 7.77106 14.5143C5.97986 14.5064 4.24231 13.9021 2.83276 12.7969L4.958 11.8006C5.05921 11.753 5.15635 11.6972 5.24844 11.6338C5.2764 11.6146 5.30435 11.5945 5.33099 11.5735C6.35954 12.3055 7.76327 12.7672 8.97744 12.2208C9.26657 12.0898 9.53211 11.8784 9.68935 11.6067L12.7243 12.8405Z" fill="#DE8276"/>
<path d="M8.66604 7.95982C8.63449 7.97597 8.60976 8.00287 8.59631 8.03566C8.58286 8.06846 8.58159 8.10498 8.59272 8.13863C8.60384 8.17228 8.62664 8.20084 8.65699 8.21915C8.68734 8.23746 8.72324 8.24431 8.7582 8.23846" stroke="#00214E" stroke-width="2.18376" stroke-miterlimit="10"/>
<path d="M9.33908 6.69149C9.44783 7.10859 9.53824 7.52132 9.64175 7.93929C9.65389 7.97764 9.65834 8.01801 9.65485 8.05809C9.63607 8.1782 9.49325 8.22755 9.37446 8.25332" stroke="#00214E" stroke-width="2.18376" stroke-miterlimit="10"/>
</svg>
