<svg width="18" height="21" viewBox="0 0 18 21" fill="none" xmlns="http://www.w3.org/2000/svg">
<mask id="mask0_351_3119" style="mask-type:alpha" maskUnits="userSpaceOnUse" x="0" y="1" width="17" height="20">
<path d="M14.72 10.9634C14.72 15.4783 11.7265 18.6465 8.58705 18.6465C5.4476 18.6465 2.4541 15.4783 2.4541 10.9634C2.4541 6.44864 5.4476 3.28038 8.58705 3.28038C11.7265 3.28038 14.72 6.44864 14.72 10.9634Z" fill="#D9D9D9" stroke="white" stroke-width="3"/>
</mask>
<g mask="url(#mask0_351_3119)">
</g>
<path d="M5.51411 9.76174C5.44119 9.58739 5.37059 9.41082 5.30278 9.23368C5.16994 8.88724 5.04547 8.53241 4.98973 8.1569C4.80906 6.94545 5.32972 5.62448 6.07704 4.84777C7.14066 3.74305 8.64737 3.32563 9.81921 2.34552C9.75426 2.8273 9.54021 3.26168 9.22005 3.56144C9.76858 3.05294 11.403 3.89056 11.9139 4.2046C12.7611 4.71774 13.481 5.49017 14.0012 6.44422C13.4497 6.17447 12.8493 6.08203 12.259 6.176C12.7179 6.71076 13.1954 7.28128 13.3691 8.02C12.5456 7.30587 11.2307 7.64952 10.7291 8.71401C10.4072 9.39573 10.4119 10.2261 10.2182 10.9754C10.0138 11.7689 9.4625 12.2729 8.81411 12.4841C8.3255 12.6451 7.36406 12.7177 6.92143 12.3724C6.7872 12.2679 6.6892 12.1081 6.59909 11.9505C6.19447 11.253 5.83188 10.5215 5.51411 9.76174Z" fill="#DAAEA8"/>
<path d="M6.0264 10.9335C6.46248 10.9335 6.81599 10.5082 6.81599 9.98358C6.81599 9.45894 6.46248 9.03364 6.0264 9.03364C5.59033 9.03364 5.23682 9.45894 5.23682 9.98358C5.23682 10.5082 5.59033 10.9335 6.0264 10.9335Z" fill="#845161"/>
<path d="M6.29856 10.8218C6.70898 10.8218 7.0417 10.4215 7.0417 9.9277C7.0417 9.43392 6.70898 9.03364 6.29856 9.03364C5.88813 9.03364 5.55542 9.43392 5.55542 9.9277C5.55542 10.4215 5.88813 10.8218 6.29856 10.8218Z" fill="#69303A"/>
<path d="M13.5316 16.8695C12.0223 18.2676 10.1689 19.0211 8.26406 19.011C6.35921 19.0009 4.51143 18.2277 3.01245 16.8136L5.27252 15.539C5.38016 15.4782 5.48346 15.4068 5.58139 15.3256C5.61112 15.301 5.64084 15.2753 5.66917 15.2485C5.91515 15.022 6.11762 14.7344 6.26276 14.4053C6.44854 13.9834 6.50985 13.5173 6.51264 13.0424C6.51264 12.8854 6.50985 12.7278 6.50614 12.5702C6.50242 12.4126 6.49685 12.2455 6.49545 12.0829C6.4936 11.906 6.49205 11.7289 6.49081 11.5515L6.5837 11.6074L6.82522 11.7577L6.93716 11.7806L8.23208 12.0455L9.67748 12.3417L9.72114 14.1298L9.73926 14.8724L9.74251 14.9981V15.0166L10.3045 15.2915L13.5316 16.8695Z" fill="#845161"/>
<path d="M9.73844 14.8685L9.66691 14.8774C9.32155 14.9139 8.97373 14.8595 8.64756 14.7182C8.32139 14.5768 8.02466 14.3518 7.77794 14.0588L6.49695 12.2422C6.49277 12.0801 6.49695 12.2422 6.49695 12.0796C6.4951 11.9026 6.49355 11.7255 6.49231 11.5482L6.5852 11.6041L6.82672 11.7544L6.93866 11.7773L8.23358 12.0421L9.67898 12.3383L9.72264 14.1264L9.73844 14.8685Z" fill="#69303A"/>
<path d="M6.42868 8.21166C6.28383 8.36577 6.19069 8.57816 6.16672 8.809C6.06965 9.90031 6.40546 11.1883 6.49881 12.2813L8.19038 13.7822C8.46811 14.0318 8.78763 14.2058 9.1268 14.292C9.46596 14.3783 9.81666 14.3748 10.1546 14.2818C10.4272 14.2041 10.6 14.1538 10.7231 13.8906C10.9609 13.3877 11.5447 11.6672 11.5828 10.4535C11.5935 10.1087 11.5865 9.58348 11.41 9.29012C11.3241 9.14763 11.28 9.14427 11.3111 8.94311C11.3432 8.73301 11.3891 8.52514 11.4277 8.31671C11.4837 8.01523 11.4994 7.70493 11.4741 7.39751C11.4486 7.11811 11.4495 6.87001 11.4249 6.58559C11.4128 6.44757 11.3617 5.84352 11.3617 5.84352C11.0668 6.37772 10.5345 6.65823 10.0422 6.84263C9.37244 7.09297 8.67528 7.21534 7.99624 7.42545C7.54618 7.56682 6.81836 7.76798 6.42868 8.21166Z" fill="#845161"/>
<path d="M8.43558 9.05376C8.71891 9.05655 8.71891 9.5779 8.43558 9.58069H8.42304C8.13926 9.5779 8.13926 9.05655 8.42304 9.05376H8.43558Z" fill="#00214E"/>
<path d="M10.8828 8.8945C11.1462 8.8945 11.1462 9.38065 10.8828 9.38344H10.8712C10.6084 9.38065 10.6084 8.89674 10.8712 8.8945H10.8828Z" fill="#00214E"/>
<path d="M8.64319 11.5655C8.8663 11.8654 9.17226 12.0578 9.5043 12.107" stroke="#00214E" stroke-width="2.18376" stroke-miterlimit="10"/>
<path d="M7.776 8.42782C8.20593 8.3213 8.64823 8.30627 9.08253 8.38343" stroke="#DAAEA8" stroke-width="2.18376" stroke-miterlimit="10"/>
<path d="M10.5187 8.43128C10.7842 8.35798 11.0577 8.33532 11.3292 8.36413" stroke="#DAAEA8" stroke-width="2.18376" stroke-miterlimit="10"/>
<path d="M13.5316 16.8695C12.0223 18.2676 10.1689 19.0211 8.26406 19.011C6.35921 19.0009 4.51143 18.2277 3.01245 16.8136L5.27252 15.539C5.38016 15.4782 5.48346 15.4068 5.58139 15.3256C5.61112 15.301 5.64084 15.2753 5.66917 15.2485C6.76298 16.185 8.25576 16.7756 9.54697 16.0766C9.85444 15.9089 10.1368 15.6385 10.304 15.2909L13.5316 16.8695Z" fill="#DE8276"/>
<path d="M9.21585 10.6251C9.1823 10.6457 9.15599 10.6801 9.14169 10.7221C9.12739 10.7641 9.12603 10.8108 9.13787 10.8538C9.1497 10.8969 9.17395 10.9334 9.20622 10.9569C9.2385 10.9803 9.27667 10.989 9.31385 10.9816" stroke="#00214E" stroke-width="2.18376" stroke-miterlimit="10"/>
<path d="M9.93164 9.00235C10.0473 9.53599 10.1434 10.064 10.2535 10.5988C10.2664 10.6479 10.2712 10.6995 10.2674 10.7508C10.2475 10.9045 10.0956 10.9676 9.96926 11.0006" stroke="#00214E" stroke-width="2.18376" stroke-miterlimit="10"/>
</svg>
