<svg width="40" height="40" viewBox="0 0 40 40" fill="none" xmlns="http://www.w3.org/2000/svg">
<mask id="mask0_260_1156" style="mask-type:alpha" maskUnits="userSpaceOnUse" x="2" y="2" width="37" height="37">
<circle cx="20.1868" cy="20.5607" r="16.4439" fill="#D9D9D9" stroke="white" stroke-width="3"/>
</mask>
<g mask="url(#mask0_260_1156)">
</g>
<path d="M12.9629 18.2126C12.7914 17.872 12.6255 17.5269 12.4661 17.1808C12.1538 16.5039 11.8612 15.8105 11.7301 15.0768C11.3054 12.7096 12.5294 10.1284 14.2862 8.61064C16.7866 6.45199 20.3287 5.63635 23.0835 3.72119C22.9308 4.6626 22.4276 5.51139 21.675 6.09713C22.9645 5.10351 26.8068 6.74024 28.0079 7.35388C29.9994 8.35656 31.6917 9.8659 32.9148 11.7301C31.6182 11.203 30.2067 11.0224 28.8192 11.206C29.898 12.251 31.0204 13.3658 31.4288 14.8093C29.4929 13.4138 26.4017 14.0853 25.2225 16.1654C24.4658 17.4975 24.4768 19.12 24.0214 20.5842C23.541 22.1347 22.245 23.1196 20.7207 23.5323C19.572 23.8468 17.3118 23.9887 16.2713 23.3139C15.9557 23.1097 15.7253 22.7975 15.5135 22.4895C14.5623 21.1266 13.7099 19.6973 12.9629 18.2126Z" fill="#DAAEA8"/>
<path d="M14.1672 20.5023C15.1924 20.5023 16.0234 19.6713 16.0234 18.6461C16.0234 17.621 15.1924 16.7899 14.1672 16.7899C13.1421 16.7899 12.311 17.621 12.311 18.6461C12.311 19.6713 13.1421 20.5023 14.1672 20.5023Z" fill="#845161"/>
<path d="M14.8071 20.2839C15.7719 20.2839 16.5541 19.5018 16.5541 18.5369C16.5541 17.5721 15.7719 16.7899 14.8071 16.7899C13.8422 16.7899 13.0601 17.5721 13.0601 18.5369C13.0601 19.5018 13.8422 20.2839 14.8071 20.2839Z" fill="#69303A"/>
<path d="M31.811 32.1013C28.2628 34.8333 23.9058 36.3056 19.4278 36.2858C14.9498 36.266 10.6059 34.7553 7.08203 31.9921L12.3951 29.5015C12.6482 29.3826 12.891 29.2431 13.1212 29.0844C13.1911 29.0364 13.261 28.9861 13.3276 28.9337C13.9058 28.4913 14.3818 27.9293 14.723 27.2861C15.1598 26.4617 15.3039 25.5511 15.3105 24.623C15.3105 24.3162 15.3039 24.0082 15.2952 23.7003C15.2864 23.3924 15.2733 23.066 15.2701 22.7482C15.2657 22.4025 15.262 22.0563 15.2591 21.7098L15.4775 21.819L16.0453 22.1127L16.3084 22.1575L19.3526 22.6751L22.7505 23.2538L22.8532 26.7478L22.8958 28.1989L22.9034 28.4446V28.4806L24.2246 29.0178L31.811 32.1013Z" fill="#845161"/>
<path d="M22.8934 28.1913L22.7252 28.2088C21.9133 28.28 21.0957 28.1738 20.3289 27.8976C19.5621 27.6214 18.8645 27.1818 18.2845 26.6092L15.2731 23.0595C15.2633 22.7428 15.2731 23.0595 15.2731 22.7417C15.2688 22.396 15.2651 22.0499 15.2622 21.7034L15.4806 21.8126L16.0484 22.1063L16.3115 22.151L19.3557 22.6686L22.7536 23.2473L22.8562 26.7413L22.8934 28.1913Z" fill="#69303A"/>
<path d="M15.1129 15.1837C14.7723 15.4848 14.5534 15.8998 14.497 16.3509C14.2688 18.4833 15.0583 21.0001 15.2777 23.1358L19.2544 26.0686C19.9073 26.5564 20.6584 26.8963 21.4557 27.0648C22.2531 27.2334 23.0775 27.2265 23.8719 27.0448C24.5129 26.893 24.919 26.7947 25.2084 26.2805C25.7674 25.2978 27.1399 21.9359 27.2295 19.5643C27.2546 18.8906 27.2382 17.8642 26.8233 17.291C26.6213 17.0126 26.5176 17.006 26.5907 16.6129C26.6661 16.2024 26.7742 15.7962 26.8648 15.3889C26.9964 14.7998 27.0333 14.1935 26.974 13.5928C26.9139 13.0469 26.9161 12.5621 26.8582 12.0063C26.8298 11.7366 26.7097 10.5563 26.7097 10.5563C26.0164 11.6001 24.7651 12.1482 23.6077 12.5086C22.0332 12.9977 20.3943 13.2368 18.798 13.6474C17.7399 13.9236 16.0289 14.3167 15.1129 15.1837Z" fill="#845161"/>
<path d="M19.8309 16.8292C20.4969 16.8347 20.4969 17.8534 19.8309 17.8589H19.8014C19.1342 17.8534 19.1342 16.8347 19.8014 16.8292H19.8309Z" fill="#00214E"/>
<path d="M25.5838 16.5179C26.2029 16.5179 26.2029 17.4679 25.5838 17.4733H25.5565C24.9385 17.4679 24.9385 16.5223 25.5565 16.5179H25.5838Z" fill="#00214E"/>
<path d="M20.3188 21.7372C20.8434 22.3232 21.5626 22.6991 22.3432 22.7952" stroke="#00214E" stroke-width="2.18376" stroke-miterlimit="10"/>
<path d="M18.2803 15.6073C19.291 15.3977 20.3308 15.3681 21.3517 15.52" stroke="#DAAEA8" stroke-width="2.18376" stroke-miterlimit="10"/>
<path d="M24.7278 15.614C25.352 15.4697 25.995 15.4252 26.6331 15.4818" stroke="#DAAEA8" stroke-width="2.18376" stroke-miterlimit="10"/>
<path d="M31.811 32.1013C28.2628 34.8332 23.9058 36.3056 19.4278 36.2858C14.9498 36.266 10.6059 34.7553 7.08203 31.9921L12.3951 29.5015C12.6482 29.3825 12.891 29.243 13.1212 29.0844C13.1911 29.0364 13.261 28.9861 13.3276 28.9337C15.899 30.7637 19.4083 31.9178 22.4437 30.5519C23.1665 30.2243 23.8304 29.6959 24.2235 29.0167L31.811 32.1013Z" fill="#DE8276"/>
<path d="M21.6652 19.8995C21.5863 19.9399 21.5245 20.0072 21.4909 20.0891C21.4573 20.1711 21.4541 20.2624 21.4819 20.3466C21.5097 20.4307 21.5667 20.5021 21.6426 20.5479C21.7185 20.5936 21.8082 20.6108 21.8956 20.5962" stroke="#00214E" stroke-width="2.18376" stroke-miterlimit="10"/>
<path d="M23.3477 16.7288C23.6195 17.7715 23.8456 18.8033 24.1043 19.8483C24.1347 19.9441 24.1458 20.0451 24.1371 20.1453C24.0901 20.4455 23.7331 20.5689 23.4361 20.6333" stroke="#00214E" stroke-width="2.18376" stroke-miterlimit="10"/>
</svg>
