<svg width="40" height="40" viewBox="0 0 40 40" fill="none" xmlns="http://www.w3.org/2000/svg">
<mask id="mask0_329_737" style="mask-type:alpha" maskUnits="userSpaceOnUse" x="2" y="2" width="37" height="37">
<circle cx="20.1871" cy="20.5606" r="16.4439" fill="#D9D9D9" stroke="white" stroke-width="3"/>
</mask>
<g mask="url(#mask0_329_737)">
</g>
<path d="M12.9629 18.2126C12.7914 17.872 12.6255 17.5269 12.4661 17.1808C12.1538 16.5039 11.8612 15.8105 11.7301 15.0768C11.3054 12.7096 12.5294 10.1284 14.2862 8.61064C16.7866 6.45199 20.3287 5.63635 23.0835 3.72119C22.9308 4.6626 22.4276 5.51139 21.675 6.09713C22.9645 5.10351 26.8068 6.74024 28.0079 7.35388C29.9994 8.35656 31.6917 9.8659 32.9148 11.7301C31.6182 11.203 30.2067 11.0224 28.8192 11.206C29.898 12.251 31.0204 13.3658 31.4288 14.8093C29.4929 13.4138 26.4017 14.0853 25.2225 16.1654C24.4658 17.4975 24.4768 19.12 24.0214 20.5842C23.541 22.1347 22.245 23.1196 20.7207 23.5323C19.572 23.8468 17.3118 23.9887 16.2713 23.3139C15.9557 23.1097 15.7253 22.7975 15.5135 22.4895C14.5623 21.1266 13.7099 19.6973 12.9629 18.2126Z" fill="#DAAEA8"/>
<path d="M14.1672 20.5022C15.1924 20.5022 16.0234 19.6711 16.0234 18.646C16.0234 17.6208 15.1924 16.7898 14.1672 16.7898C13.1421 16.7898 12.311 17.6208 12.311 18.646C12.311 19.6711 13.1421 20.5022 14.1672 20.5022Z" fill="#845161"/>
<path d="M14.8071 20.2838C15.7719 20.2838 16.5541 19.5017 16.5541 18.5368C16.5541 17.572 15.7719 16.7898 14.8071 16.7898C13.8422 16.7898 13.0601 17.572 13.0601 18.5368C13.0601 19.5017 13.8422 20.2838 14.8071 20.2838Z" fill="#69303A"/>
<path d="M31.811 32.1014C28.2628 34.8334 23.9058 36.3057 19.4278 36.2859C14.9498 36.2662 10.6059 34.7554 7.08203 31.9922L12.3951 29.5016C12.6482 29.3827 12.891 29.2432 13.1212 29.0845C13.1911 29.0365 13.261 28.9863 13.3276 28.9338C13.9058 28.4914 14.3818 27.9294 14.723 27.2862C15.1598 26.4618 15.3039 25.5512 15.3105 24.6231C15.3105 24.3163 15.3039 24.0084 15.2952 23.7005C15.2864 23.3926 15.2733 23.0661 15.2701 22.7483C15.2657 22.4026 15.262 22.0565 15.2591 21.71L15.4775 21.8191L16.0453 22.1129L16.3084 22.1576L19.3526 22.6752L22.7505 23.2539L22.8532 26.7479L22.8958 28.199L22.9034 28.4447V28.4807L24.2246 29.0179L31.811 32.1014Z" fill="#845161"/>
<path d="M22.8934 28.1913L22.7252 28.2088C21.9133 28.28 21.0957 28.1738 20.3289 27.8976C19.5621 27.6214 18.8645 27.1818 18.2845 26.6092L15.2731 23.0595C15.2633 22.7428 15.2731 23.0595 15.2731 22.7417C15.2688 22.396 15.2651 22.0499 15.2622 21.7034L15.4806 21.8126L16.0484 22.1063L16.3115 22.151L19.3557 22.6686L22.7536 23.2473L22.8562 26.7413L22.8934 28.1913Z" fill="#69303A"/>
<path d="M15.1129 15.1838C14.7723 15.4849 14.5534 15.8999 14.497 16.351C14.2688 18.4835 15.0583 21.0002 15.2777 23.136L19.2544 26.0688C19.9073 26.5565 20.6584 26.8964 21.4557 27.0649C22.2531 27.2335 23.0775 27.2267 23.8719 27.0449C24.5129 26.8931 24.919 26.7949 25.2084 26.2806C25.7674 25.2979 27.1399 21.936 27.2295 19.5644C27.2546 18.8907 27.2382 17.8644 26.8233 17.2911C26.6213 17.0127 26.5176 17.0061 26.5907 16.6131C26.6661 16.2025 26.7741 15.7963 26.8648 15.3891C26.9964 14.8 27.0333 14.1936 26.974 13.5929C26.9139 13.047 26.9161 12.5622 26.8582 12.0064C26.8298 11.7367 26.7097 10.5564 26.7097 10.5564C26.0164 11.6002 24.7651 12.1484 23.6077 12.5087C22.0332 12.9978 20.3943 13.237 18.798 13.6475C17.7399 13.9238 16.0289 14.3168 15.1129 15.1838Z" fill="#845161"/>
<path d="M19.8306 16.8291C20.4967 16.8346 20.4967 17.8533 19.8306 17.8587H19.8011C19.134 17.8533 19.134 16.8346 19.8011 16.8291H19.8306Z" fill="#00214E"/>
<path d="M25.5841 16.5181C26.2032 16.5181 26.2032 17.468 25.5841 17.4735H25.5568C24.9388 17.468 24.9388 16.5224 25.5568 16.5181H25.5841Z" fill="#00214E"/>
<path d="M20.3188 21.7373C20.8434 22.3233 21.5626 22.6993 22.3432 22.7953" stroke="#00214E" stroke-width="2.18376" stroke-miterlimit="10"/>
<path d="M18.2803 15.6073C19.291 15.3977 20.3308 15.3681 21.3517 15.52" stroke="#DAAEA8" stroke-width="2.18376" stroke-miterlimit="10"/>
<path d="M24.728 15.614C25.3522 15.4697 25.9953 15.4252 26.6334 15.4818" stroke="#DAAEA8" stroke-width="2.18376" stroke-miterlimit="10"/>
<path d="M31.811 32.1014C28.2628 34.8334 23.9058 36.3057 19.4278 36.2859C14.9498 36.2662 10.6059 34.7554 7.08203 31.9922L12.3951 29.5016C12.6482 29.3827 12.891 29.2432 13.1212 29.0845C13.1911 29.0365 13.261 28.9862 13.3276 28.9338C15.899 30.7638 19.4083 31.918 22.4437 30.552C23.1665 30.2244 23.8304 29.696 24.2235 29.0168L31.811 32.1014Z" fill="#DE8276"/>
<path d="M21.665 19.8997C21.5861 19.94 21.5243 20.0073 21.4906 20.0893C21.457 20.1713 21.4538 20.2626 21.4817 20.3467C21.5095 20.4308 21.5665 20.5022 21.6424 20.548C21.7182 20.5938 21.808 20.6109 21.8954 20.5963" stroke="#00214E" stroke-width="2.18376" stroke-miterlimit="10"/>
<path d="M23.3477 16.7288C23.6195 17.7715 23.8456 18.8033 24.1043 19.8483C24.1347 19.9441 24.1458 20.0451 24.1371 20.1453C24.0901 20.4455 23.7331 20.5689 23.4361 20.6333" stroke="#00214E" stroke-width="2.18376" stroke-miterlimit="10"/>
</svg>
