<svg width="16" height="16" viewBox="0 0 16 16" fill="none" xmlns="http://www.w3.org/2000/svg">
<mask id="mask0_203_702" style="mask-type:alpha" maskUnits="userSpaceOnUse" x="0" y="1" width="16" height="15">
<circle cx="8.07479" cy="8.2243" r="5.67757" fill="#D9D9D9" stroke="white" stroke-width="3"/>
</mask>
<g mask="url(#mask0_203_702)">
</g>
<path d="M5.18515 7.28504C5.11658 7.14877 5.05019 7.01076 4.98642 6.87231C4.86151 6.60152 4.74446 6.32418 4.69205 6.03069C4.52215 5.08381 5.01175 4.05132 5.71449 3.44424C6.71465 2.58078 8.13148 2.25452 9.23341 1.48846C9.17233 1.86502 8.97106 2.20454 8.67 2.43883C9.1858 2.04139 10.7227 2.69608 11.2032 2.94153C11.9998 3.3426 12.6767 3.94634 13.1659 4.69204C12.6473 4.4812 12.0827 4.40895 11.5277 4.4824C11.9592 4.90037 12.4082 5.34629 12.5715 5.92368C11.7971 5.36551 10.5607 5.63411 10.089 6.46613C9.78634 6.99897 9.7907 7.64798 9.60858 8.23367C9.41641 8.85385 8.89798 9.24781 8.28827 9.4129C7.82881 9.53868 6.92473 9.59546 6.50851 9.32555C6.38228 9.24388 6.29013 9.11896 6.2054 8.9958C5.82492 8.45063 5.48396 7.87891 5.18515 7.28504Z" fill="#DAAEA8"/>
<path d="M5.66692 8.20091C6.07698 8.20091 6.4094 7.86849 6.4094 7.45843C6.4094 7.04837 6.07698 6.71595 5.66692 6.71595C5.25686 6.71595 4.92444 7.04837 4.92444 7.45843C4.92444 7.86849 5.25686 8.20091 5.66692 8.20091Z" fill="#845161"/>
<path d="M5.9228 8.11356C6.30874 8.11356 6.62161 7.80069 6.62161 7.41475C6.62161 7.02882 6.30874 6.71595 5.9228 6.71595C5.53686 6.71595 5.224 7.02882 5.224 7.41475C5.224 7.80069 5.53686 8.11356 5.9228 8.11356Z" fill="#69303A"/>
<path d="M12.7243 12.8405C11.3051 13.9333 9.56227 14.5223 7.77106 14.5143C5.97986 14.5064 4.24231 13.9021 2.83276 12.7969L4.958 11.8006C5.05921 11.753 5.15635 11.6972 5.24844 11.6338C5.2764 11.6146 5.30435 11.5945 5.33099 11.5735C5.56229 11.3965 5.75268 11.1717 5.88916 10.9144C6.06386 10.5847 6.12151 10.2204 6.12413 9.84921C6.12413 9.72648 6.12151 9.60332 6.11802 9.48015C6.11452 9.35699 6.10928 9.2264 6.10797 9.0993C6.10623 8.961 6.10477 8.82255 6.1036 8.68395L6.19096 8.72763L6.41807 8.84511L6.52332 8.86302L7.74099 9.07004L9.10017 9.30152L9.14122 10.6991L9.15825 11.2796L9.16131 11.3778V11.3923L9.68978 11.6071L12.7243 12.8405Z" fill="#845161"/>
<path d="M9.15745 11.2765L9.09019 11.2835C8.76543 11.312 8.43836 11.2695 8.13165 11.159C7.82494 11.0485 7.54592 10.8727 7.31391 10.6437L6.10935 9.22378C6.10542 9.09712 6.10935 9.22378 6.10935 9.09669C6.1076 8.95838 6.10615 8.81993 6.10498 8.68134L6.19233 8.72501L6.41944 8.8425L6.5247 8.8604L7.74237 9.06742L9.10154 9.2989L9.1426 10.6965L9.15745 11.2765Z" fill="#69303A"/>
<path d="M6.04507 6.07348C5.90886 6.19394 5.82128 6.35995 5.79874 6.54037C5.70746 7.39335 6.02323 8.40007 6.11102 9.25435L7.70167 10.4275C7.96283 10.6226 8.26329 10.7585 8.58222 10.8259C8.90115 10.8934 9.23093 10.8906 9.5487 10.8179C9.80507 10.7572 9.96754 10.7179 10.0833 10.5122C10.3069 10.1191 10.8559 8.77436 10.8917 7.82574C10.9018 7.55626 10.8952 7.14571 10.7292 6.91642C10.6484 6.80505 10.607 6.80242 10.6362 6.64519C10.6663 6.48097 10.7096 6.3185 10.7458 6.15559C10.7985 5.91995 10.8132 5.67742 10.7895 5.43714C10.7655 5.21876 10.7664 5.02484 10.7432 4.80253C10.7319 4.69466 10.6838 4.22253 10.6838 4.22253C10.4065 4.64006 9.90596 4.85931 9.443 5.00344C8.81321 5.19911 8.15764 5.29475 7.51911 5.45897C7.0959 5.56947 6.4115 5.7267 6.04507 6.07348Z" fill="#845161"/>
<path d="M7.93227 6.73167C8.19869 6.73386 8.19869 7.14135 7.93227 7.14353H7.92048C7.65362 7.14135 7.65362 6.73386 7.92048 6.73167H7.93227Z" fill="#00214E"/>
<path d="M10.2336 6.60719C10.4812 6.60719 10.4812 6.98717 10.2336 6.98935H10.2226C9.97543 6.98717 9.97543 6.60894 10.2226 6.60719H10.2336Z" fill="#00214E"/>
<path d="M8.12756 8.69487C8.33737 8.92929 8.62507 9.07965 8.9373 9.11808" stroke="#00214E" stroke-width="2.18376" stroke-miterlimit="10"/>
<path d="M7.31213 6.24295C7.71642 6.15911 8.13232 6.14728 8.54072 6.20801" stroke="#DAAEA8" stroke-width="2.18376" stroke-miterlimit="10"/>
<path d="M9.89111 6.24556C10.1408 6.18788 10.398 6.17004 10.6532 6.19272" stroke="#DAAEA8" stroke-width="2.18376" stroke-miterlimit="10"/>
<path d="M12.7243 12.8405C11.3051 13.9333 9.56227 14.5223 7.77106 14.5143C5.97986 14.5064 4.24231 13.9021 2.83276 12.7969L4.958 11.8006C5.05921 11.753 5.15635 11.6972 5.24844 11.6338C5.2764 11.6146 5.30435 11.5945 5.33099 11.5735C6.35954 12.3055 7.76327 12.7672 8.97744 12.2208C9.26657 12.0898 9.53211 11.8784 9.68935 11.6067L12.7243 12.8405Z" fill="#DE8276"/>
<path d="M8.66604 7.95982C8.63449 7.97597 8.60976 8.00287 8.59631 8.03566C8.58286 8.06846 8.58159 8.10498 8.59272 8.13863C8.60384 8.17228 8.62664 8.20084 8.65699 8.21915C8.68734 8.23746 8.72324 8.24431 8.7582 8.23846" stroke="#00214E" stroke-width="2.18376" stroke-miterlimit="10"/>
<path d="M9.33911 6.69149C9.44786 7.10859 9.53827 7.52132 9.64178 7.93929C9.65392 7.97764 9.65837 8.01801 9.65488 8.05809C9.6361 8.1782 9.49328 8.22755 9.37449 8.25332" stroke="#00214E" stroke-width="2.18376" stroke-miterlimit="10"/>
</svg>
