<svg width="40" height="40" viewBox="0 0 40 40" fill="none" xmlns="http://www.w3.org/2000/svg">
<mask id="mask0_203_1041" style="mask-type:alpha" maskUnits="userSpaceOnUse" x="2" y="2" width="37" height="37">
<circle cx="20.1868" cy="20.5607" r="16.4439" fill="#D9D9D9" stroke="white" stroke-width="3"/>
</mask>
<g mask="url(#mask0_203_1041)">
</g>
<path d="M12.9629 18.2126C12.7914 17.8719 12.6255 17.5269 12.4661 17.1808C12.1538 16.5038 11.8612 15.8104 11.7301 15.0767C11.3054 12.7095 12.5294 10.1283 14.2862 8.61058C16.7866 6.45193 20.3287 5.63629 23.0835 3.72113C22.9308 4.66254 22.4276 5.51133 21.675 6.09707C22.9645 5.10345 26.8068 6.74018 28.0079 7.35382C29.9994 8.35649 31.6917 9.86584 32.9148 11.7301C31.6182 11.203 30.2067 11.0224 28.8192 11.206C29.898 12.2509 31.0204 13.3657 31.4288 14.8092C29.4929 13.4138 26.4017 14.0853 25.2225 16.1653C24.4658 17.4974 24.4768 19.1199 24.0214 20.5842C23.541 22.1346 22.245 23.1195 20.7207 23.5322C19.572 23.8467 17.3118 23.9886 16.2713 23.3139C15.9557 23.1097 15.7253 22.7974 15.5135 22.4895C14.5623 21.1266 13.7099 19.6973 12.9629 18.2126Z" fill="#DAAEA8"/>
<path d="M14.1672 20.5023C15.1924 20.5023 16.0234 19.6712 16.0234 18.6461C16.0234 17.6209 15.1924 16.7899 14.1672 16.7899C13.1421 16.7899 12.311 17.6209 12.311 18.6461C12.311 19.6712 13.1421 20.5023 14.1672 20.5023Z" fill="#845161"/>
<path d="M14.8071 20.2839C15.7719 20.2839 16.5541 19.5017 16.5541 18.5369C16.5541 17.572 15.7719 16.7899 14.8071 16.7899C13.8422 16.7899 13.0601 17.572 13.0601 18.5369C13.0601 19.5017 13.8422 20.2839 14.8071 20.2839Z" fill="#69303A"/>
<path d="M31.811 32.1013C28.2628 34.8333 23.9058 36.3056 19.4278 36.2859C14.9498 36.2661 10.6059 34.7554 7.08203 31.9922L12.3951 29.5016C12.6482 29.3826 12.891 29.2431 13.1212 29.0845C13.1911 29.0364 13.261 28.9862 13.3276 28.9338C13.9058 28.4913 14.3818 27.9293 14.723 27.2861C15.1598 26.4618 15.3039 25.5511 15.3105 24.623C15.3105 24.3162 15.3039 24.0083 15.2952 23.7004C15.2864 23.3925 15.2733 23.066 15.2701 22.7483C15.2657 22.4025 15.262 22.0564 15.2591 21.7099L15.4775 21.8191L16.0453 22.1128L16.3084 22.1576L19.3526 22.6751L22.7505 23.2538L22.8532 26.7478L22.8958 28.199L22.9034 28.4446V28.4807L24.2246 29.0179L31.811 32.1013Z" fill="#845161"/>
<path d="M22.8934 28.1913L22.7252 28.2088C21.9133 28.28 21.0957 28.1738 20.3289 27.8976C19.5621 27.6213 18.8645 27.1817 18.2845 26.6092L15.2731 23.0595C15.2633 22.7428 15.2731 23.0595 15.2731 22.7417C15.2688 22.396 15.2651 22.0498 15.2622 21.7033L15.4806 21.8125L16.0484 22.1062L16.3115 22.151L19.3557 22.6686L22.7536 23.2473L22.8562 26.7413L22.8934 28.1913Z" fill="#69303A"/>
<path d="M15.1129 15.1837C14.7723 15.4848 14.5534 15.8999 14.497 16.3509C14.2688 18.4834 15.0583 21.0002 15.2777 23.1359L19.2544 26.0687C19.9073 26.5564 20.6584 26.8963 21.4557 27.0648C22.2531 27.2334 23.0775 27.2266 23.8719 27.0448C24.5129 26.893 24.919 26.7948 25.2084 26.2805C25.7674 25.2978 27.1399 21.9359 27.2295 19.5643C27.2546 18.8906 27.2382 17.8643 26.8233 17.291C26.6213 17.0126 26.5176 17.0061 26.5907 16.613C26.6661 16.2024 26.7742 15.7962 26.8648 15.389C26.9964 14.7999 27.0333 14.1935 26.974 13.5928C26.9139 13.0469 26.9161 12.5621 26.8582 12.0063C26.8298 11.7366 26.7097 10.5563 26.7097 10.5563C26.0164 11.6001 24.7651 12.1483 23.6077 12.5086C22.0332 12.9978 20.3943 13.2369 18.798 13.6474C17.7399 13.9237 16.0289 14.3167 15.1129 15.1837Z" fill="#845161"/>
<path d="M19.8309 16.8292C20.4969 16.8346 20.4969 17.8533 19.8309 17.8588H19.8014C19.1342 17.8533 19.1342 16.8346 19.8014 16.8292H19.8309Z" fill="#00214E"/>
<path d="M25.5838 16.518C26.2029 16.518 26.2029 17.4679 25.5838 17.4734H25.5565C24.9385 17.4679 24.9385 16.5223 25.5565 16.518H25.5838Z" fill="#00214E"/>
<path d="M20.3188 21.7372C20.8434 22.3232 21.5626 22.6991 22.3432 22.7952" stroke="#00214E" stroke-width="2.18376" stroke-miterlimit="10"/>
<path d="M18.2803 15.6074C19.291 15.3978 20.3308 15.3682 21.3517 15.52" stroke="#DAAEA8" stroke-width="2.18376" stroke-miterlimit="10"/>
<path d="M24.7278 15.6139C25.352 15.4697 25.995 15.4251 26.6331 15.4818" stroke="#DAAEA8" stroke-width="2.18376" stroke-miterlimit="10"/>
<path d="M31.811 32.1013C28.2628 34.8333 23.9058 36.3056 19.4278 36.2859C14.9498 36.2661 10.6059 34.7553 7.08203 31.9921L12.3951 29.5016C12.6482 29.3826 12.891 29.2431 13.1212 29.0845C13.1911 29.0364 13.261 28.9862 13.3276 28.9338C15.899 30.7638 19.4083 31.9179 22.4437 30.5519C23.1665 30.2244 23.8304 29.6959 24.2235 29.0168L31.811 32.1013Z" fill="#DE8276"/>
<path d="M21.6652 19.8995C21.5863 19.9399 21.5245 20.0072 21.4909 20.0891C21.4573 20.1711 21.4541 20.2624 21.4819 20.3466C21.5097 20.4307 21.5667 20.5021 21.6426 20.5479C21.7185 20.5936 21.8082 20.6108 21.8956 20.5962" stroke="#00214E" stroke-width="2.18376" stroke-miterlimit="10"/>
<path d="M23.3477 16.7287C23.6195 17.7715 23.8456 18.8033 24.1043 19.8482C24.1347 19.9441 24.1458 20.045 24.1371 20.1452C24.0901 20.4455 23.7331 20.5689 23.4361 20.6333" stroke="#00214E" stroke-width="2.18376" stroke-miterlimit="10"/>
</svg>
