<svg width="40" height="40" viewBox="0 0 40 40" fill="none" xmlns="http://www.w3.org/2000/svg">
<mask id="mask0_239_643" style="mask-type:alpha" maskUnits="userSpaceOnUse" x="2" y="2" width="37" height="37">
<circle cx="20.1869" cy="20.5607" r="16.4439" fill="#D9D9D9" stroke="white" stroke-width="3"/>
</mask>
<g mask="url(#mask0_239_643)">
</g>
<path d="M12.9628 18.2126C12.7914 17.872 12.6254 17.5269 12.466 17.1808C12.1537 16.5039 11.8611 15.8105 11.7301 15.0768C11.3053 12.7096 12.5293 10.1284 14.2862 8.61064C16.7866 6.45199 20.3286 5.63635 23.0835 3.72119C22.9308 4.6626 22.4276 5.51139 21.6749 6.09713C22.9644 5.10351 26.8068 6.74024 28.0078 7.35388C29.9993 8.35656 31.6917 9.8659 32.9148 11.7301C31.6181 11.203 30.2067 11.0224 28.8191 11.206C29.8979 12.251 31.0203 13.3658 31.4287 14.8093C29.4928 13.4138 26.4017 14.0853 25.2225 16.1654C24.4658 17.4975 24.4767 19.12 24.0214 20.5842C23.541 22.1347 22.2449 23.1196 20.7206 23.5323C19.572 23.8468 17.3118 23.9887 16.2712 23.3139C15.9557 23.1097 15.7253 22.7975 15.5134 22.4895C14.5622 21.1266 13.7098 19.6973 12.9628 18.2126Z" fill="#DAAEA8"/>
<path d="M14.1672 20.5023C15.1923 20.5023 16.0234 19.6713 16.0234 18.6461C16.0234 17.621 15.1923 16.7899 14.1672 16.7899C13.142 16.7899 12.311 17.621 12.311 18.6461C12.311 19.6713 13.142 20.5023 14.1672 20.5023Z" fill="#845161"/>
<path d="M14.807 20.2839C15.7719 20.2839 16.554 19.5018 16.554 18.5369C16.554 17.5721 15.7719 16.7899 14.807 16.7899C13.8422 16.7899 13.06 17.5721 13.06 18.5369C13.06 19.5018 13.8422 20.2839 14.807 20.2839Z" fill="#69303A"/>
<path d="M31.8109 32.1013C28.2628 34.8333 23.9057 36.3056 19.4277 36.2858C14.9497 36.266 10.6058 34.7553 7.08197 31.9921L12.3951 29.5015C12.6481 29.3826 12.8909 29.2431 13.1212 29.0844C13.191 29.0364 13.2609 28.9861 13.3275 28.9337C13.9058 28.4913 14.3818 27.9293 14.723 27.2861C15.1597 26.4617 15.3038 25.5511 15.3104 24.623C15.3104 24.3162 15.3038 24.0082 15.2951 23.7003C15.2864 23.3924 15.2733 23.066 15.27 22.7482C15.2656 22.4025 15.262 22.0563 15.2591 21.7098L15.4774 21.819L16.0452 22.1127L16.3084 22.1575L19.3525 22.6751L22.7505 23.2538L22.8531 26.7478L22.8957 28.1989L22.9033 28.4446V28.4806L24.2245 29.0178L31.8109 32.1013Z" fill="#845161"/>
<path d="M22.8935 28.1913L22.7253 28.2088C21.9134 28.28 21.0958 28.1738 20.329 27.8976C19.5622 27.6214 18.8647 27.1818 18.2847 26.6092L15.2732 23.0595C15.2634 22.7428 15.2732 23.0595 15.2732 22.7417C15.2689 22.396 15.2652 22.0499 15.2623 21.7034L15.4807 21.8126L16.0485 22.1063L16.3116 22.151L19.3558 22.6686L22.7537 23.2473L22.8564 26.7413L22.8935 28.1913Z" fill="#69303A"/>
<path d="M15.1127 15.1837C14.7722 15.4848 14.5533 15.8998 14.4969 16.3509C14.2687 18.4833 15.0581 21.0001 15.2776 23.1358L19.2542 26.0686C19.9071 26.5564 20.6583 26.8963 21.4556 27.0648C22.2529 27.2334 23.0774 27.2265 23.8718 27.0448C24.5127 26.893 24.9189 26.7947 25.2083 26.2805C25.7673 25.2978 27.1398 21.9359 27.2293 19.5643C27.2545 18.8906 27.2381 17.8642 26.8232 17.291C26.6212 17.0126 26.5174 17.006 26.5906 16.6129C26.6659 16.2024 26.774 15.7962 26.8647 15.3889C26.9963 14.7998 27.0332 14.1935 26.9738 13.5928C26.9138 13.0469 26.916 12.5621 26.8581 12.0063C26.8297 11.7366 26.7096 10.5563 26.7096 10.5563C26.0163 11.6001 24.765 12.1482 23.6076 12.5086C22.0331 12.9977 20.3942 13.2368 18.7978 13.6474C17.7398 13.9236 16.0288 14.3167 15.1127 15.1837Z" fill="#845161"/>
<path d="M19.8307 16.8292C20.4968 16.8347 20.4968 17.8534 19.8307 17.8589H19.8013C19.1341 17.8534 19.1341 16.8347 19.8013 16.8292H19.8307Z" fill="#00214E"/>
<path d="M25.5839 16.5179C26.203 16.5179 26.203 17.4679 25.5839 17.4733H25.5566C24.9386 17.4679 24.9386 16.5223 25.5566 16.5179H25.5839Z" fill="#00214E"/>
<path d="M20.3188 21.7372C20.8434 22.3232 21.5626 22.6991 22.3432 22.7952" stroke="#00214E" stroke-width="2.18376" stroke-miterlimit="10"/>
<path d="M18.2803 15.6073C19.291 15.3977 20.3308 15.3681 21.3517 15.52" stroke="#DAAEA8" stroke-width="2.18376" stroke-miterlimit="10"/>
<path d="M24.7278 15.614C25.352 15.4697 25.9951 15.4252 26.6332 15.4818" stroke="#DAAEA8" stroke-width="2.18376" stroke-miterlimit="10"/>
<path d="M31.8109 32.1013C28.2628 34.8332 23.9057 36.3056 19.4277 36.2858C14.9497 36.266 10.6058 34.7553 7.08197 31.9921L12.3951 29.5015C12.6481 29.3825 12.8909 29.243 13.1212 29.0844C13.191 29.0364 13.2609 28.9861 13.3275 28.9337C15.8989 30.7637 19.4082 31.9178 22.4437 30.5519C23.1665 30.2243 23.8303 29.6959 24.2234 29.0167L31.8109 32.1013Z" fill="#DE8276"/>
<path d="M21.6651 19.8995C21.5862 19.9399 21.5244 20.0072 21.4908 20.0891C21.4572 20.1711 21.454 20.2624 21.4818 20.3466C21.5096 20.4307 21.5666 20.5021 21.6425 20.5479C21.7184 20.5936 21.8081 20.6108 21.8955 20.5962" stroke="#00214E" stroke-width="2.18376" stroke-miterlimit="10"/>
<path d="M23.3477 16.7288C23.6196 17.7715 23.8456 18.8033 24.1044 19.8483C24.1347 19.9441 24.1459 20.0451 24.1371 20.1453C24.0902 20.4455 23.7332 20.5689 23.4362 20.6333" stroke="#00214E" stroke-width="2.18376" stroke-miterlimit="10"/>
</svg>
