<svg width="37" height="34" viewBox="0 0 37 34" fill="none" xmlns="http://www.w3.org/2000/svg">
<mask id="mask0_510_183" style="mask-type:alpha" maskUnits="userSpaceOnUse" x="2" y="2" width="35" height="32">
<path d="M34.6375 17.7139C34.6375 25.2978 27.8594 31.6733 19.2045 31.6733C10.5496 31.6733 3.77148 25.2978 3.77148 17.7139C3.77148 10.13 10.5496 3.75452 19.2045 3.75452C27.8594 3.75452 34.6375 10.13 34.6375 17.7139Z" fill="#D9D9D9" stroke="white" stroke-width="3"/>
</mask>
<g mask="url(#mask0_510_183)">
</g>
<path d="M10.5252 14.5701C10.3881 14.2975 10.2553 14.0215 10.1278 13.7446C9.87793 13.203 9.64383 12.6484 9.53901 12.0614C9.19922 10.1676 10.1784 8.10264 11.5839 6.88847C13.5842 5.16155 16.4179 4.50904 18.6217 2.97691C18.4996 3.73004 18.097 4.40907 17.4949 4.87766C18.5265 4.08277 21.6004 5.39216 22.5612 5.88307C24.1544 6.68521 25.5083 7.89268 26.4868 9.38408C25.4495 8.96239 24.3203 8.8179 23.2102 8.96479C24.0733 9.80074 24.9712 10.6926 25.2979 11.8474C23.7492 10.731 21.2763 11.2682 20.3329 12.9323C19.7276 13.9979 19.7363 15.296 19.3721 16.4673C18.9877 17.7077 17.9509 18.4956 16.7315 18.8258C15.8125 19.0774 14.0044 19.1909 13.1719 18.6511C12.9195 18.4878 12.7352 18.2379 12.5657 17.9916C11.8047 16.9013 11.1228 15.7578 10.5252 14.5701Z" fill="#DAAEA8"/>
<path d="M11.4886 16.4018C12.3087 16.4018 12.9736 15.737 12.9736 14.9169C12.9736 14.0967 12.3087 13.4319 11.4886 13.4319C10.6685 13.4319 10.0037 14.0967 10.0037 14.9169C10.0037 15.737 10.6685 16.4018 11.4886 16.4018Z" fill="#845161"/>
<path d="M12.0005 16.2271C12.7724 16.2271 13.3981 15.6014 13.3981 14.8295C13.3981 14.0576 12.7724 13.4319 12.0005 13.4319C11.2286 13.4319 10.6029 14.0576 10.6029 14.8295C10.6029 15.6014 11.2286 16.2271 12.0005 16.2271Z" fill="#69303A"/>
<path d="M25.6036 25.6811C22.7651 27.8666 19.2794 29.0445 15.697 29.0287C12.1146 29.0129 8.63954 27.8043 5.82043 25.5937L10.0709 23.6012C10.2733 23.5061 10.4676 23.3945 10.6518 23.2676C10.7077 23.2291 10.7636 23.1889 10.8169 23.147C11.2795 22.7931 11.6603 22.3435 11.9332 21.8289C12.2826 21.1694 12.3979 20.4409 12.4032 19.6984C12.4032 19.453 12.3979 19.2066 12.3909 18.9603C12.384 18.714 12.3735 18.4528 12.3709 18.1986C12.3674 17.922 12.3644 17.6451 12.3621 17.3679L12.5368 17.4553L12.991 17.6902L13.2016 17.726L15.6369 18.1401L18.3552 18.603L18.4373 21.3983L18.4714 22.5591L18.4775 22.7557V22.7845L19.5345 23.2143L25.6036 25.6811Z" fill="#845161"/>
<path d="M18.4697 22.553L18.3352 22.567C17.6856 22.624 17.0315 22.539 16.4181 22.318C15.8047 22.0971 15.2466 21.7454 14.7826 21.2873L12.3735 18.4476C12.3656 18.1942 12.3735 18.4476 12.3735 18.1934C12.37 17.9168 12.3671 17.6399 12.3647 17.3627L12.5394 17.45L12.9937 17.685L13.2042 17.7208L15.6395 18.1348L18.3579 18.5978L18.44 21.393L18.4697 22.553Z" fill="#69303A"/>
<path d="M12.245 12.147C11.9726 12.3879 11.7975 12.7199 11.7524 13.0807C11.5698 14.7867 12.2014 16.8001 12.3769 18.5087L15.5582 20.8549C16.0806 21.2451 16.6815 21.517 17.3193 21.6519C17.9572 21.7867 18.6168 21.7813 19.2523 21.6359C19.7651 21.5144 20.09 21.4358 20.3215 21.0244C20.7687 20.2383 21.8667 17.5487 21.9383 15.6515C21.9584 15.1125 21.9453 14.2914 21.6134 13.8328C21.4518 13.6101 21.3688 13.6048 21.4273 13.2904C21.4876 12.9619 21.5741 12.637 21.6466 12.3112C21.7519 11.8399 21.7814 11.3548 21.7339 10.8743C21.6859 10.4375 21.6876 10.0497 21.6413 9.60507C21.6186 9.38931 21.5225 8.44505 21.5225 8.44505C20.9679 9.28012 19.9668 9.71862 19.0409 10.0069C17.7813 10.3982 16.4702 10.5895 15.1931 10.9179C14.3467 11.1389 12.9779 11.4534 12.245 12.147Z" fill="#845161"/>
<path d="M16.0196 13.4633C16.5524 13.4677 16.5524 14.2827 16.0196 14.2871H15.996C15.4623 14.2827 15.4623 13.4677 15.996 13.4633H16.0196Z" fill="#00214E"/>
<path d="M20.622 13.2144C21.1173 13.2144 21.1173 13.9743 20.622 13.9787H20.6002C20.1058 13.9743 20.1058 13.2179 20.6002 13.2144H20.622Z" fill="#00214E"/>
<path d="M16.4099 17.3897C16.8295 17.8586 17.4049 18.1593 18.0294 18.2362" stroke="#00214E" stroke-width="2.18376" stroke-miterlimit="10"/>
<path d="M14.7792 12.4859C15.5877 12.3182 16.4196 12.2946 17.2363 12.416" stroke="#DAAEA8" stroke-width="2.18376" stroke-miterlimit="10"/>
<path d="M19.9371 12.4911C20.4365 12.3758 20.9509 12.3401 21.4614 12.3854" stroke="#DAAEA8" stroke-width="2.18376" stroke-miterlimit="10"/>
<path d="M25.6036 25.6811C22.7651 27.8666 19.2794 29.0445 15.697 29.0287C12.1146 29.0129 8.63954 27.8043 5.82043 25.5937L10.0709 23.6012C10.2733 23.5061 10.4676 23.3945 10.6518 23.2676C10.7077 23.2291 10.7636 23.1889 10.8169 23.147C12.874 24.611 15.6814 25.5343 18.1098 24.4416C18.688 24.1795 19.2191 23.7567 19.5336 23.2134L25.6036 25.6811Z" fill="#DE8276"/>
<path d="M17.487 15.9196C17.4239 15.9519 17.3744 16.0057 17.3475 16.0713C17.3206 16.1369 17.3181 16.21 17.3403 16.2773C17.3626 16.3446 17.4082 16.4017 17.4689 16.4383C17.5296 16.4749 17.6014 16.4886 17.6713 16.4769" stroke="#00214E" stroke-width="2.18376" stroke-miterlimit="10"/>
<path d="M18.8331 13.383C19.0506 14.2172 19.2314 15.0426 19.4385 15.8786C19.4627 15.9553 19.4717 16.036 19.4647 16.1162C19.4271 16.3564 19.1415 16.4551 18.9039 16.5066" stroke="#00214E" stroke-width="2.18376" stroke-miterlimit="10"/>
</svg>
