<svg width="18" height="21" viewBox="0 0 18 21" fill="none" xmlns="http://www.w3.org/2000/svg">
<mask id="mask0_178_220" style="mask-type:alpha" maskUnits="userSpaceOnUse" x="0" y="1" width="17" height="20">
<path d="M14.72 10.9634C14.72 15.4783 11.7265 18.6465 8.58706 18.6465C5.44762 18.6465 2.45412 15.4783 2.45412 10.9634C2.45412 6.44864 5.44762 3.28038 8.58706 3.28038C11.7265 3.28038 14.72 6.44864 14.72 10.9634Z" fill="#D9D9D9" stroke="white" stroke-width="3"/>
</mask>
<g mask="url(#mask0_178_220)">
</g>
<path d="M5.51409 9.76174C5.44117 9.58739 5.37057 9.41082 5.30276 9.23368C5.16993 8.88724 5.04545 8.53241 4.98972 8.1569C4.80904 6.94545 5.3297 5.62448 6.07702 4.84777C7.14064 3.74305 8.64736 3.32563 9.81919 2.34552C9.75424 2.8273 9.5402 3.26168 9.22004 3.56144C9.76857 3.05294 11.403 3.89056 11.9139 4.2046C12.761 4.71774 13.4809 5.49017 14.0012 6.44422C13.4497 6.17447 12.8493 6.08203 12.259 6.176C12.7179 6.71076 13.1954 7.28128 13.3691 8.02C12.5456 7.30587 11.2307 7.64952 10.7291 8.71401C10.4072 9.39573 10.4118 10.2261 10.2182 10.9754C10.0138 11.7689 9.46249 12.2729 8.8141 12.4841C8.32548 12.6451 7.36405 12.7177 6.92141 12.3724C6.78718 12.2679 6.68918 12.1081 6.59908 11.9505C6.19446 11.253 5.83187 10.5215 5.51409 9.76174Z" fill="#DAAEA8"/>
<path d="M6.0264 10.9335C6.46248 10.9335 6.81599 10.5082 6.81599 9.98358C6.81599 9.45894 6.46248 9.03364 6.0264 9.03364C5.59033 9.03364 5.23682 9.45894 5.23682 9.98358C5.23682 10.5082 5.59033 10.9335 6.0264 10.9335Z" fill="#845161"/>
<path d="M6.29857 10.8218C6.709 10.8218 7.04171 10.4215 7.04171 9.9277C7.04171 9.43392 6.709 9.03364 6.29857 9.03364C5.88815 9.03364 5.55544 9.43392 5.55544 9.9277C5.55544 10.4215 5.88815 10.8218 6.29857 10.8218Z" fill="#69303A"/>
<path d="M13.5316 16.8695C12.0223 18.2676 10.169 19.0211 8.2641 19.011C6.35926 19.0009 4.51148 18.2277 3.0125 16.8136L5.27257 15.539C5.3802 15.4782 5.48351 15.4068 5.58144 15.3256C5.61116 15.301 5.64089 15.2753 5.66922 15.2485C5.91519 15.022 6.11766 14.7344 6.2628 14.4053C6.44859 13.9834 6.5099 13.5173 6.51268 13.0424C6.51268 12.8854 6.5099 12.7278 6.50618 12.5702C6.50247 12.4126 6.49689 12.2455 6.4955 12.0829C6.49364 11.906 6.49209 11.7289 6.49085 11.5515L6.58375 11.6074L6.82527 11.7577L6.9372 11.7806L8.23212 12.0455L9.67753 12.3417L9.72119 14.1298L9.7393 14.8724L9.74255 14.9981V15.0166L10.3046 15.2915L13.5316 16.8695Z" fill="#845161"/>
<path d="M9.73837 14.8685L9.66685 14.8774C9.32149 14.9139 8.97367 14.8595 8.6475 14.7182C8.32133 14.5768 8.0246 14.3518 7.77788 14.0588L6.49689 12.2422C6.49271 12.0801 6.49689 12.2422 6.49689 12.0796C6.49504 11.9026 6.49349 11.7255 6.49225 11.5482L6.58514 11.6041L6.82666 11.7544L6.9386 11.7773L8.23352 12.0421L9.67892 12.3383L9.72258 14.1264L9.73837 14.8685Z" fill="#69303A"/>
<path d="M6.42862 8.21166C6.28377 8.36577 6.19063 8.57816 6.16666 8.809C6.06959 9.90031 6.40539 11.1883 6.49875 12.2813L8.19032 13.7822C8.46805 14.0318 8.78757 14.2058 9.12674 14.292C9.4659 14.3783 9.8166 14.3748 10.1545 14.2818C10.4272 14.2041 10.6 14.1538 10.723 13.8906C10.9608 13.3877 11.5447 11.6672 11.5828 10.4535C11.5934 10.1087 11.5865 9.58348 11.41 9.29012C11.324 9.14763 11.2799 9.14427 11.311 8.94311C11.3431 8.73301 11.3891 8.52514 11.4276 8.31671C11.4836 8.01523 11.4993 7.70493 11.4741 7.39751C11.4485 7.11811 11.4495 6.87001 11.4248 6.58559C11.4128 6.44757 11.3617 5.84352 11.3617 5.84352C11.0667 6.37772 10.5345 6.65823 10.0421 6.84263C9.37238 7.09297 8.67522 7.21534 7.99618 7.42545C7.54611 7.56682 6.8183 7.76798 6.42862 8.21166Z" fill="#845161"/>
<path d="M8.43555 9.05376C8.71888 9.05655 8.71888 9.5779 8.43555 9.58069H8.42301C8.13923 9.5779 8.13923 9.05655 8.42301 9.05376H8.43555Z" fill="#00214E"/>
<path d="M10.8828 8.8945C11.1462 8.8945 11.1462 9.38065 10.8828 9.38344H10.8712C10.6083 9.38065 10.6083 8.89674 10.8712 8.8945H10.8828Z" fill="#00214E"/>
<path d="M8.64317 11.5655C8.86629 11.8654 9.17224 12.0578 9.50429 12.107" stroke="#00214E" stroke-width="2.18376" stroke-miterlimit="10"/>
<path d="M7.77603 8.42782C8.20596 8.3213 8.64826 8.30627 9.08256 8.38343" stroke="#DAAEA8" stroke-width="2.18376" stroke-miterlimit="10"/>
<path d="M10.5187 8.43128C10.7842 8.35798 11.0577 8.33532 11.3292 8.36413" stroke="#DAAEA8" stroke-width="2.18376" stroke-miterlimit="10"/>
<path d="M13.5316 16.8695C12.0223 18.2676 10.169 19.0211 8.2641 19.011C6.35926 19.0009 4.51148 18.2277 3.0125 16.8136L5.27257 15.539C5.3802 15.4782 5.48351 15.4068 5.58144 15.3256C5.61116 15.301 5.64089 15.2753 5.66922 15.2485C6.76303 16.185 8.25581 16.7756 9.54702 16.0766C9.85449 15.9089 10.1369 15.6385 10.3041 15.2909L13.5316 16.8695Z" fill="#DE8276"/>
<path d="M9.21586 10.6251C9.18231 10.6457 9.15601 10.6801 9.14171 10.7221C9.1274 10.7641 9.12605 10.8108 9.13788 10.8538C9.14972 10.8969 9.17397 10.9334 9.20624 10.9569C9.23851 10.9803 9.27669 10.989 9.31387 10.9816" stroke="#00214E" stroke-width="2.18376" stroke-miterlimit="10"/>
<path d="M9.93159 9.00235C10.0472 9.53599 10.1434 10.064 10.2535 10.5988C10.2664 10.6479 10.2711 10.6995 10.2674 10.7508C10.2474 10.9045 10.0955 10.9676 9.96922 11.0006" stroke="#00214E" stroke-width="2.18376" stroke-miterlimit="10"/>
</svg>
