<svg width="16" height="16" viewBox="0 0 16 16" fill="none" xmlns="http://www.w3.org/2000/svg">
<mask id="mask0_219_867" style="mask-type:alpha" maskUnits="userSpaceOnUse" x="0" y="1" width="16" height="15">
<circle cx="8.07476" cy="8.22432" r="5.67757" fill="#D9D9D9" stroke="white" stroke-width="3"/>
</mask>
<g mask="url(#mask0_219_867)">
</g>
<path d="M5.18511 7.28499C5.11654 7.14872 5.05016 7.0107 4.98639 6.87225C4.86148 6.60147 4.74443 6.32413 4.69202 6.03063C4.52212 5.08375 5.01172 4.05127 5.71446 3.44418C6.71462 2.58072 8.13145 2.25447 9.23338 1.4884C9.1723 1.86497 8.97102 2.20448 8.66996 2.43878C9.18577 2.04133 10.7227 2.69602 11.2031 2.94148C11.9997 3.34255 12.6767 3.94629 13.1659 4.69198C12.6473 4.48114 12.0827 4.40889 11.5276 4.48234C11.9591 4.90032 12.4081 5.34624 12.5715 5.92363C11.7971 5.36546 10.5607 5.63406 10.089 6.46607C9.7863 6.99891 9.79067 7.64793 9.60855 8.23361C9.41638 8.8538 8.89795 9.24775 8.28824 9.41285C7.82878 9.53863 6.9247 9.59541 6.50848 9.32549C6.38225 9.24382 6.2901 9.11891 6.20537 8.99575C5.82489 8.45058 5.48393 7.87886 5.18511 7.28499Z" fill="#DAAEA8"/>
<path d="M5.66686 8.2009C6.07692 8.2009 6.40934 7.86848 6.40934 7.45842C6.40934 7.04836 6.07692 6.71594 5.66686 6.71594C5.2568 6.71594 4.92438 7.04836 4.92438 7.45842C4.92438 7.86848 5.2568 8.2009 5.66686 8.2009Z" fill="#845161"/>
<path d="M5.9228 8.11355C6.30874 8.11355 6.62161 7.80069 6.62161 7.41475C6.62161 7.02881 6.30874 6.71594 5.9228 6.71594C5.53686 6.71594 5.224 7.02881 5.224 7.41475C5.224 7.80069 5.53686 8.11355 5.9228 8.11355Z" fill="#69303A"/>
<path d="M12.7243 12.8405C11.3051 13.9333 9.56227 14.5223 7.77106 14.5144C5.97986 14.5064 4.24231 13.9021 2.83276 12.7969L4.958 11.8006C5.05921 11.753 5.15635 11.6972 5.24844 11.6338C5.2764 11.6146 5.30435 11.5945 5.33099 11.5735C5.56229 11.3965 5.75268 11.1717 5.88916 10.9145C6.06386 10.5847 6.12151 10.2205 6.12413 9.84922C6.12413 9.72649 6.12151 9.60332 6.11802 9.48016C6.11452 9.357 6.10928 9.22641 6.10797 9.09931C6.10623 8.96101 6.10477 8.82256 6.1036 8.68396L6.19096 8.72764L6.41807 8.84512L6.52332 8.86303L7.74099 9.07005L9.10017 9.30153L9.14122 10.6991L9.15825 11.2796L9.16131 11.3779V11.3923L9.68978 11.6071L12.7243 12.8405Z" fill="#845161"/>
<path d="M9.15738 11.2765L9.09012 11.2834C8.76537 11.3119 8.4383 11.2694 8.13159 11.159C7.82488 11.0485 7.54585 10.8726 7.31385 10.6436L6.10929 9.22372C6.10536 9.09706 6.10929 9.22372 6.10929 9.09663C6.10754 8.95832 6.10608 8.81987 6.10492 8.68127L6.19227 8.72495L6.41938 8.84244L6.52464 8.86034L7.74231 9.06736L9.10148 9.29884L9.14253 10.6965L9.15738 11.2765Z" fill="#69303A"/>
<path d="M6.0451 6.07349C5.90889 6.19395 5.82131 6.35995 5.79877 6.54038C5.70749 7.39336 6.02326 8.40007 6.11105 9.25436L7.7017 10.4275C7.96286 10.6226 8.26332 10.7585 8.58225 10.826C8.90118 10.8934 9.23096 10.8906 9.54873 10.8179C9.8051 10.7572 9.96757 10.7179 10.0833 10.5122C10.3069 10.1191 10.8559 8.77437 10.8917 7.82574C10.9018 7.55627 10.8952 7.14572 10.7293 6.91642C10.6485 6.80505 10.607 6.80243 10.6362 6.6452C10.6664 6.48098 10.7096 6.31851 10.7459 6.1556C10.7985 5.91996 10.8133 5.67743 10.7895 5.43714C10.7655 5.21877 10.7664 5.02485 10.7432 4.80254C10.7319 4.69466 10.6838 4.22253 10.6838 4.22253C10.4065 4.64007 9.90599 4.85932 9.44303 5.00345C8.81324 5.19911 8.15767 5.29476 7.51914 5.45898C7.09593 5.56948 6.41153 5.72671 6.0451 6.07349Z" fill="#845161"/>
<path d="M7.9323 6.73169C8.19872 6.73387 8.19872 7.14136 7.9323 7.14355H7.92051C7.65365 7.14136 7.65365 6.73387 7.92051 6.73169H7.9323Z" fill="#00214E"/>
<path d="M10.2336 6.60718C10.4812 6.60718 10.4812 6.98715 10.2336 6.98934H10.2226C9.97543 6.98715 9.97543 6.60892 10.2226 6.60718H10.2336Z" fill="#00214E"/>
<path d="M8.12753 8.69482C8.33734 8.92924 8.62504 9.07961 8.93727 9.11804" stroke="#00214E" stroke-width="2.18376" stroke-miterlimit="10"/>
<path d="M7.3121 6.2429C7.71639 6.15906 8.13229 6.14723 8.54069 6.20796" stroke="#DAAEA8" stroke-width="2.18376" stroke-miterlimit="10"/>
<path d="M9.89114 6.24561C10.1408 6.18792 10.398 6.17009 10.6533 6.19276" stroke="#DAAEA8" stroke-width="2.18376" stroke-miterlimit="10"/>
<path d="M12.7243 12.8405C11.3051 13.9333 9.56227 14.5222 7.77106 14.5143C5.97986 14.5064 4.24231 13.9021 2.83276 12.7968L4.958 11.8006C5.05921 11.753 5.15635 11.6972 5.24844 11.6338C5.2764 11.6145 5.30435 11.5945 5.33099 11.5735C6.35954 12.3055 7.76327 12.7671 8.97744 12.2208C9.26657 12.0897 9.53211 11.8783 9.68935 11.6067L12.7243 12.8405Z" fill="#DE8276"/>
<path d="M8.66604 7.95984C8.63449 7.97599 8.60976 8.00289 8.59631 8.03568C8.58286 8.06848 8.58159 8.105 8.59272 8.13865C8.60384 8.1723 8.62664 8.20086 8.65699 8.21917C8.68734 8.23748 8.72324 8.24433 8.7582 8.23849" stroke="#00214E" stroke-width="2.18376" stroke-miterlimit="10"/>
<path d="M9.33908 6.69153C9.44783 7.10863 9.53824 7.52136 9.64175 7.93933C9.65389 7.97768 9.65834 8.01805 9.65485 8.05813C9.63607 8.17823 9.49325 8.22759 9.37446 8.25336" stroke="#00214E" stroke-width="2.18376" stroke-miterlimit="10"/>
</svg>
