<svg width="16" height="16" viewBox="0 0 16 16" fill="none" xmlns="http://www.w3.org/2000/svg">
<mask id="mask0_219_1431" style="mask-type:alpha" maskUnits="userSpaceOnUse" x="0" y="1" width="16" height="15">
<circle cx="8.07479" cy="8.22432" r="5.67757" fill="#D9D9D9" stroke="white" stroke-width="3"/>
</mask>
<g mask="url(#mask0_219_1431)">
</g>
<path d="M5.18515 7.28499C5.11658 7.14872 5.05019 7.0107 4.98642 6.87225C4.86151 6.60147 4.74446 6.32413 4.69205 6.03063C4.52215 5.08375 5.01175 4.05127 5.71449 3.44418C6.71465 2.58072 8.13148 2.25447 9.23341 1.4884C9.17233 1.86497 8.97106 2.20448 8.67 2.43878C9.1858 2.04133 10.7227 2.69602 11.2032 2.94148C11.9998 3.34255 12.6767 3.94629 13.1659 4.69198C12.6473 4.48114 12.0827 4.40889 11.5277 4.48234C11.9592 4.90032 12.4082 5.34624 12.5715 5.92363C11.7971 5.36546 10.5607 5.63406 10.089 6.46607C9.78634 6.99891 9.7907 7.64793 9.60858 8.23361C9.41641 8.8538 8.89798 9.24775 8.28827 9.41285C7.82881 9.53863 6.92473 9.59541 6.50851 9.32549C6.38228 9.24382 6.29013 9.11891 6.2054 8.99575C5.82492 8.45058 5.48396 7.87886 5.18515 7.28499Z" fill="#DAAEA8"/>
<path d="M5.66692 8.2009C6.07698 8.2009 6.4094 7.86848 6.4094 7.45842C6.4094 7.04836 6.07698 6.71594 5.66692 6.71594C5.25686 6.71594 4.92444 7.04836 4.92444 7.45842C4.92444 7.86848 5.25686 8.2009 5.66692 8.2009Z" fill="#845161"/>
<path d="M5.9228 8.11355C6.30874 8.11355 6.62161 7.80069 6.62161 7.41475C6.62161 7.02881 6.30874 6.71594 5.9228 6.71594C5.53686 6.71594 5.224 7.02881 5.224 7.41475C5.224 7.80069 5.53686 8.11355 5.9228 8.11355Z" fill="#69303A"/>
<path d="M12.7243 12.8405C11.3051 13.9333 9.56227 14.5223 7.77106 14.5144C5.97986 14.5064 4.24231 13.9021 2.83276 12.7969L4.958 11.8006C5.05921 11.753 5.15635 11.6972 5.24844 11.6338C5.2764 11.6146 5.30435 11.5945 5.33099 11.5735C5.56229 11.3965 5.75268 11.1717 5.88916 10.9145C6.06386 10.5847 6.12151 10.2205 6.12413 9.84922C6.12413 9.72649 6.12151 9.60332 6.11802 9.48016C6.11452 9.357 6.10928 9.22641 6.10797 9.09931C6.10623 8.96101 6.10477 8.82256 6.1036 8.68396L6.19096 8.72764L6.41807 8.84512L6.52332 8.86303L7.74099 9.07005L9.10017 9.30153L9.14122 10.6991L9.15825 11.2796L9.16131 11.3779V11.3923L9.68978 11.6071L12.7243 12.8405Z" fill="#845161"/>
<path d="M9.15745 11.2765L9.09019 11.2834C8.76543 11.3119 8.43836 11.2694 8.13165 11.159C7.82494 11.0485 7.54592 10.8726 7.31391 10.6436L6.10935 9.22372C6.10542 9.09706 6.10935 9.22372 6.10935 9.09663C6.1076 8.95832 6.10615 8.81987 6.10498 8.68127L6.19233 8.72495L6.41944 8.84244L6.5247 8.86034L7.74237 9.06736L9.10154 9.29884L9.1426 10.6965L9.15745 11.2765Z" fill="#69303A"/>
<path d="M6.04507 6.07349C5.90886 6.19395 5.82128 6.35995 5.79874 6.54038C5.70746 7.39336 6.02323 8.40007 6.11102 9.25436L7.70167 10.4275C7.96283 10.6226 8.26329 10.7585 8.58222 10.826C8.90115 10.8934 9.23093 10.8906 9.5487 10.8179C9.80507 10.7572 9.96754 10.7179 10.0833 10.5122C10.3069 10.1191 10.8559 8.77437 10.8917 7.82574C10.9018 7.55627 10.8952 7.14572 10.7292 6.91642C10.6484 6.80505 10.607 6.80243 10.6362 6.6452C10.6663 6.48098 10.7096 6.31851 10.7458 6.1556C10.7985 5.91996 10.8132 5.67743 10.7895 5.43714C10.7655 5.21877 10.7664 5.02485 10.7432 4.80254C10.7319 4.69466 10.6838 4.22253 10.6838 4.22253C10.4065 4.64007 9.90596 4.85932 9.443 5.00345C8.81321 5.19911 8.15764 5.29476 7.51911 5.45898C7.0959 5.56948 6.4115 5.72671 6.04507 6.07349Z" fill="#845161"/>
<path d="M7.93227 6.73169C8.19869 6.73387 8.19869 7.14136 7.93227 7.14355H7.92048C7.65362 7.14136 7.65362 6.73387 7.92048 6.73169H7.93227Z" fill="#00214E"/>
<path d="M10.2336 6.60718C10.4812 6.60718 10.4812 6.98715 10.2336 6.98934H10.2226C9.97543 6.98715 9.97543 6.60892 10.2226 6.60718H10.2336Z" fill="#00214E"/>
<path d="M8.12756 8.69482C8.33737 8.92924 8.62507 9.07961 8.9373 9.11804" stroke="#00214E" stroke-width="2.18376" stroke-miterlimit="10"/>
<path d="M7.31213 6.2429C7.71642 6.15906 8.13232 6.14723 8.54072 6.20796" stroke="#DAAEA8" stroke-width="2.18376" stroke-miterlimit="10"/>
<path d="M9.89111 6.24561C10.1408 6.18792 10.398 6.17009 10.6532 6.19276" stroke="#DAAEA8" stroke-width="2.18376" stroke-miterlimit="10"/>
<path d="M12.7243 12.8405C11.3051 13.9333 9.56227 14.5222 7.77106 14.5143C5.97986 14.5064 4.24231 13.9021 2.83276 12.7968L4.958 11.8006C5.05921 11.753 5.15635 11.6972 5.24844 11.6338C5.2764 11.6145 5.30435 11.5945 5.33099 11.5735C6.35954 12.3055 7.76327 12.7671 8.97744 12.2208C9.26657 12.0897 9.53211 11.8783 9.68935 11.6067L12.7243 12.8405Z" fill="#DE8276"/>
<path d="M8.66604 7.95984C8.63449 7.97599 8.60976 8.00289 8.59631 8.03568C8.58286 8.06848 8.58159 8.105 8.59272 8.13865C8.60384 8.1723 8.62664 8.20086 8.65699 8.21917C8.68734 8.23748 8.72324 8.24433 8.7582 8.23849" stroke="#00214E" stroke-width="2.18376" stroke-miterlimit="10"/>
<path d="M9.33911 6.69153C9.44786 7.10863 9.53827 7.52136 9.64178 7.93933C9.65392 7.97768 9.65837 8.01805 9.65488 8.05813C9.6361 8.17823 9.49328 8.22759 9.37449 8.25336" stroke="#00214E" stroke-width="2.18376" stroke-miterlimit="10"/>
</svg>
