<svg width="24" height="24" viewBox="0 0 24 24" fill="none" xmlns="http://www.w3.org/2000/svg">
<g clip-path="url(#clip0_329_734)">
<path d="M22.3439 10.2757H19.2355C18.9257 10.2757 18.6549 10.0749 18.5597 9.78218C18.4627 9.48335 18.3449 9.19168 18.2071 8.9093C18.0754 8.63724 18.1274 8.31148 18.3427 8.09543L20.5334 5.90504C20.6178 5.82052 20.6178 5.68355 20.5335 5.5992L18.4004 3.46634C18.3162 3.38206 18.1795 3.38206 18.0951 3.46648L15.9122 5.64938C15.6957 5.86582 15.3675 5.91743 15.0944 5.78302C14.8103 5.64283 14.5167 5.52288 14.2158 5.4241C13.924 5.32873 13.7243 5.05793 13.7243 4.74891V1.65607C13.7243 1.59876 13.7015 1.5438 13.661 1.50328C13.6205 1.46276 13.5655 1.43999 13.5082 1.43998H10.4918C10.4345 1.43999 10.3796 1.46276 10.3391 1.50328C10.2985 1.5438 10.2758 1.59876 10.2758 1.65607V4.81864C10.2758 5.12061 10.085 5.38693 9.80304 5.48752C9.51968 5.58917 9.24621 5.70797 8.98442 5.8433C8.70971 5.98526 8.37441 5.93593 8.15433 5.71585L5.90496 3.46648C5.88491 3.4464 5.8611 3.43047 5.83489 3.41961C5.80868 3.40874 5.78058 3.40315 5.75221 3.40315C5.72383 3.40315 5.69573 3.40875 5.66952 3.41962C5.64331 3.43049 5.6195 3.44642 5.59946 3.4665L3.46655 5.59918C3.44646 5.61924 3.43052 5.64307 3.41965 5.6693C3.40878 5.69553 3.40318 5.72364 3.40318 5.75204C3.40318 5.78043 3.40878 5.80854 3.41965 5.83477C3.43052 5.861 3.44646 5.88483 3.46655 5.90489L5.79204 8.23039C6.00455 8.44219 6.059 8.76244 5.93412 9.03272C5.82179 9.27639 5.72409 9.52653 5.64155 9.78183C5.54656 10.0746 5.27518 10.2757 4.96512 10.2757H1.65614C1.59883 10.2757 1.54387 10.2985 1.50335 10.339C1.46283 10.3795 1.44006 10.4345 1.44005 10.4918V13.5079C1.44006 13.5652 1.46283 13.6202 1.50335 13.6607C1.54387 13.7012 1.59883 13.724 1.65614 13.724H5.04996C5.35116 13.724 5.61678 13.9137 5.71871 14.1948C5.80236 14.4254 5.89861 14.6512 6.00703 14.8712C6.1407 15.1442 6.08911 15.4725 5.87257 15.689L3.46641 18.0952C3.38211 18.1794 3.38211 18.3161 3.46653 18.4005L5.59962 20.5334C5.68386 20.6177 5.8205 20.6177 5.90496 20.5332L8.31921 18.119C8.53519 17.9037 8.86238 17.8515 9.13439 17.9843C9.35237 18.0904 9.57591 18.1846 9.80405 18.2665C10.0855 18.3683 10.2758 18.634 10.2758 18.9357V22.3439C10.2758 22.4012 10.2986 22.4561 10.3391 22.4967C10.3796 22.5372 10.4346 22.5599 10.4919 22.56H13.5082C13.5655 22.5599 13.6205 22.5372 13.661 22.4967C13.7015 22.4561 13.7243 22.4012 13.7243 22.3439V19.0056C13.7243 18.6963 13.9243 18.4255 14.2161 18.3298C14.4642 18.2485 14.7074 18.1529 14.9445 18.0436C15.2149 17.9188 15.5348 17.9731 15.7467 18.1851L18.0953 20.5334C18.1795 20.6177 18.3162 20.6177 18.4006 20.5332L20.5334 18.4007C20.6178 18.3162 20.6178 18.1793 20.5335 18.0951L18.2613 15.8228C18.0417 15.6026 17.9925 15.2676 18.1343 14.9933C18.2662 14.7377 18.3824 14.471 18.4827 14.1941C18.5848 13.9134 18.8501 13.724 19.1509 13.724H22.3439C22.4012 13.724 22.4562 13.7012 22.4967 13.6607C22.5373 13.6202 22.56 13.5652 22.56 13.5079V10.4918C22.56 10.4345 22.5373 10.3795 22.4967 10.339C22.4562 10.2985 22.4012 10.2757 22.3439 10.2757L22.3439 10.2757ZM22.3439 9.31568C22.9934 9.31568 23.52 9.84225 23.52 10.4918V13.5079C23.52 14.1574 22.9934 14.684 22.3439 14.684H19.3243C19.2471 14.8835 19.1616 15.0797 19.0682 15.2721L21.2123 17.4162C21.6714 17.8753 21.6714 18.6198 21.2123 19.0793L19.0795 21.2119C18.6203 21.6715 17.8753 21.6715 17.4162 21.212L15.1896 18.9856C15.0235 19.0578 14.8549 19.1241 14.6842 19.1844V22.3439C14.6842 22.9934 14.1577 23.52 13.5081 23.52H10.4918C9.84225 23.52 9.31568 22.9934 9.31568 22.3439V19.1091C9.16627 19.0515 9.01869 18.9894 8.87316 18.9226L6.58371 21.212C6.12432 21.6714 5.37961 21.6714 4.92061 21.2121L2.78766 19.0793C2.32826 18.6199 2.32826 17.8752 2.78766 17.4162L5.06895 15.1349C5.00016 14.9867 4.93613 14.8363 4.87697 14.684H1.65607C1.00655 14.684 0.47998 14.1574 0.47998 13.5079V10.4918C0.47998 9.84225 1.00655 9.31568 1.65607 9.31568H4.78552C4.84782 9.1373 4.91665 8.96127 4.99189 8.78794L2.78766 6.58372C2.32829 6.12434 2.32829 5.37973 2.78768 4.92033L4.92045 2.7878C5.37961 2.32824 6.12432 2.32824 6.58371 2.78766L8.70537 4.90932C8.90491 4.81228 9.10854 4.72392 9.31571 4.64447V1.65607C9.31571 1.00655 9.84228 0.47998 10.4918 0.47998H13.5082C14.1577 0.47998 14.6843 1.00655 14.6843 1.65607V4.56964C14.9133 4.65078 15.1383 4.74275 15.3587 4.84521L17.4161 2.78778C17.8753 2.32819 18.6203 2.32819 19.0793 2.78761L21.2124 4.92047C21.6714 5.37982 21.6714 6.1242 21.2123 6.58372L19.1462 8.64957C19.2463 8.86729 19.3361 9.08957 19.4154 9.31568H22.3439H22.3439ZM15.36 11.88C15.36 13.802 13.802 15.36 11.88 15.36C9.95796 15.36 8.4 13.802 8.4 11.88C8.4 9.95792 9.95796 8.39996 11.88 8.39996C13.802 8.39996 15.36 9.95792 15.36 11.88ZM14.4 11.88C14.4 10.4881 13.2719 9.35996 11.88 9.35996C10.4881 9.35996 9.36 10.4881 9.36 11.88C9.36 13.2718 10.4881 14.4 11.88 14.4C13.2719 14.4 14.4 13.2718 14.4 11.88Z" fill="#DAAEA8"/>
</g>
<defs>
<clipPath id="clip0_329_734">
<rect width="24" height="24" fill="white"/>
</clipPath>
</defs>
</svg>
