<svg width="24" height="24" viewBox="0 0 24 24" fill="none" xmlns="http://www.w3.org/2000/svg">
<g clip-path="url(#clip0_219_1521)">
<path d="M22.3439 10.2757H19.2355C18.9257 10.2757 18.6549 10.075 18.5597 9.78224C18.4627 9.48341 18.3449 9.19174 18.2071 8.90936C18.0754 8.6373 18.1274 8.31154 18.3427 8.0955L20.5334 5.9051C20.6178 5.82058 20.6178 5.68361 20.5335 5.59926L18.4004 3.4664C18.3162 3.38212 18.1795 3.38212 18.0951 3.46654L15.9122 5.64944C15.6957 5.86589 15.3675 5.91749 15.0944 5.78308C14.8103 5.64289 14.5167 5.52295 14.2158 5.42416C13.924 5.32879 13.7243 5.05799 13.7243 4.74897V1.65614C13.7243 1.59883 13.7015 1.54386 13.661 1.50334C13.6205 1.46282 13.5655 1.44005 13.5082 1.44004H10.4918C10.4345 1.44005 10.3796 1.46282 10.3391 1.50334C10.2985 1.54386 10.2758 1.59883 10.2758 1.65614V4.8187C10.2758 5.12067 10.085 5.38699 9.80304 5.48758C9.51968 5.58923 9.24621 5.70803 8.98442 5.84336C8.70971 5.98532 8.37441 5.93599 8.15433 5.71591L5.90496 3.46654C5.88491 3.44646 5.8611 3.43054 5.83489 3.41967C5.80868 3.4088 5.78058 3.40321 5.75221 3.40321C5.72383 3.40321 5.69573 3.40881 5.66952 3.41968C5.64331 3.43055 5.6195 3.44648 5.59946 3.46657L3.46655 5.59924C3.44646 5.6193 3.43052 5.64313 3.41965 5.66936C3.40878 5.69559 3.40318 5.7237 3.40318 5.7521C3.40318 5.78049 3.40878 5.8086 3.41965 5.83483C3.43052 5.86106 3.44646 5.88489 3.46655 5.90496L5.79204 8.23045C6.00455 8.44225 6.059 8.7625 5.93412 9.03278C5.82179 9.27645 5.72409 9.52659 5.64155 9.78189C5.54656 10.0747 5.27518 10.2757 4.96512 10.2757H1.65614C1.59883 10.2758 1.54387 10.2985 1.50335 10.339C1.46283 10.3796 1.44006 10.4345 1.44005 10.4918V13.508C1.44006 13.5653 1.46283 13.6202 1.50335 13.6608C1.54387 13.7013 1.59883 13.7241 1.65614 13.7241H5.04996C5.35116 13.7241 5.61678 13.9138 5.71871 14.1948C5.80236 14.4254 5.89861 14.6513 6.00703 14.8713C6.1407 15.1443 6.08911 15.4725 5.87257 15.6891L3.46641 18.0952C3.38211 18.1795 3.38211 18.3161 3.46653 18.4006L5.59962 20.5334C5.68386 20.6177 5.8205 20.6177 5.90496 20.5333L8.31921 18.119C8.53519 17.9038 8.86238 17.8515 9.13439 17.9844C9.35237 18.0904 9.57591 18.1846 9.80405 18.2666C10.0855 18.3684 10.2758 18.634 10.2758 18.9357V22.3439C10.2758 22.4012 10.2986 22.4562 10.3391 22.4967C10.3796 22.5372 10.4346 22.56 10.4919 22.56H13.5082C13.5655 22.56 13.6205 22.5372 13.661 22.4967C13.7015 22.4562 13.7243 22.4012 13.7243 22.3439V19.0056C13.7243 18.6963 13.9243 18.4255 14.2161 18.3299C14.4642 18.2486 14.7074 18.153 14.9445 18.0437C15.2149 17.9188 15.5348 17.9732 15.7467 18.1851L18.0953 20.5334C18.1795 20.6177 18.3162 20.6177 18.4006 20.5333L20.5334 18.4008C20.6178 18.3163 20.6178 18.1794 20.5335 18.0951L18.2613 15.8229C18.0417 15.6026 17.9925 15.2677 18.1343 14.9934C18.2662 14.7377 18.3824 14.4711 18.4827 14.1941C18.5848 13.9134 18.8501 13.7241 19.1509 13.7241H22.3439C22.4012 13.7241 22.4562 13.7013 22.4967 13.6608C22.5373 13.6203 22.56 13.5653 22.56 13.508V10.4919C22.56 10.4346 22.5373 10.3796 22.4967 10.3391C22.4562 10.2985 22.4012 10.2758 22.3439 10.2758L22.3439 10.2757ZM22.3439 9.31575C22.9934 9.31575 23.52 9.84232 23.52 10.4918V13.508C23.52 14.1575 22.9934 14.6841 22.3439 14.6841H19.3243C19.2471 14.8835 19.1616 15.0797 19.0682 15.2722L21.2123 17.4163C21.6714 17.8754 21.6714 18.6199 21.2123 19.0794L19.0795 21.2119C18.6203 21.6715 17.8753 21.6715 17.4162 21.2121L15.1896 18.9857C15.0235 19.0578 14.8549 19.1241 14.6842 19.1845V22.3439C14.6842 22.9934 14.1577 23.52 13.5081 23.52H10.4918C9.84225 23.52 9.31568 22.9934 9.31568 22.3439V19.1091C9.16627 19.0516 9.01869 18.9894 8.87316 18.9227L6.58371 21.2121C6.12432 21.6715 5.37961 21.6715 4.92061 21.2121L2.78766 19.0794C2.32826 18.62 2.32826 17.8753 2.78766 17.4163L5.06895 15.135C5.00016 14.9868 4.93613 14.8364 4.87697 14.6841H1.65607C1.00655 14.6841 0.47998 14.1575 0.47998 13.508V10.4918C0.47998 9.84232 1.00655 9.31575 1.65607 9.31575H4.78552C4.84782 9.13736 4.91665 8.96133 4.99189 8.788L2.78766 6.58378C2.32829 6.1244 2.32829 5.37979 2.78768 4.92039L4.92045 2.78786C5.37961 2.3283 6.12432 2.3283 6.58371 2.78772L8.70537 4.90938C8.90491 4.81234 9.10854 4.72398 9.31571 4.64453V1.65614C9.31571 1.00661 9.84228 0.480042 10.4918 0.480042H13.5082C14.1577 0.480042 14.6843 1.00661 14.6843 1.65614V4.5697C14.9133 4.65085 15.1383 4.74281 15.3587 4.84528L17.4161 2.78784C17.8753 2.32825 18.6203 2.32825 19.0793 2.78767L21.2124 4.92053C21.6714 5.37989 21.6714 6.12426 21.2123 6.58378L19.1462 8.64963C19.2463 8.86735 19.3361 9.08963 19.4154 9.31575H22.3439H22.3439ZM15.36 11.88C15.36 13.8021 13.802 15.36 11.88 15.36C9.95796 15.36 8.4 13.8021 8.4 11.88C8.4 9.95798 9.95796 8.40002 11.88 8.40002C13.802 8.40002 15.36 9.95798 15.36 11.88ZM14.4 11.88C14.4 10.4882 13.2719 9.36002 11.88 9.36002C10.4881 9.36002 9.36 10.4882 9.36 11.88C9.36 13.2719 10.4881 14.4 11.88 14.4C13.2719 14.4 14.4 13.2719 14.4 11.88Z" fill="#DAAEA8"/>
</g>
<defs>
<clipPath id="clip0_219_1521">
<rect width="24" height="24" fill="white"/>
</clipPath>
</defs>
</svg>
