<svg width="24" height="24" viewBox="0 0 24 24" fill="none" xmlns="http://www.w3.org/2000/svg">
<g clip-path="url(#clip0_193_192)">
<path d="M22.3439 10.2757H19.2355C18.9257 10.2757 18.6549 10.0749 18.5597 9.78221C18.4627 9.48338 18.3449 9.19171 18.2071 8.90933C18.0754 8.63727 18.1274 8.31151 18.3427 8.09546L20.5334 5.90507C20.6178 5.82055 20.6178 5.68358 20.5335 5.59923L18.4004 3.46637C18.3162 3.38209 18.1795 3.38209 18.0951 3.46651L15.9122 5.64941C15.6957 5.86585 15.3675 5.91746 15.0944 5.78305C14.8103 5.64286 14.5167 5.52292 14.2158 5.42413C13.924 5.32876 13.7243 5.05796 13.7243 4.74894V1.6561C13.7243 1.5988 13.7015 1.54383 13.661 1.50331C13.6205 1.46279 13.5655 1.44002 13.5082 1.44001H10.4918C10.4345 1.44002 10.3796 1.46279 10.3391 1.50331C10.2985 1.54383 10.2758 1.5988 10.2758 1.6561V4.81867C10.2758 5.12064 10.085 5.38696 9.80304 5.48755C9.51968 5.5892 9.24621 5.708 8.98442 5.84333C8.70971 5.98529 8.37441 5.93596 8.15433 5.71588L5.90496 3.46651C5.88491 3.44643 5.8611 3.4305 5.83489 3.41964C5.80868 3.40877 5.78058 3.40318 5.75221 3.40318C5.72383 3.40318 5.69573 3.40878 5.66952 3.41965C5.64331 3.43052 5.6195 3.44645 5.59946 3.46653L3.46655 5.59921C3.44646 5.61927 3.43052 5.6431 3.41965 5.66933C3.40878 5.69556 3.40318 5.72367 3.40318 5.75207C3.40318 5.78046 3.40878 5.80857 3.41965 5.8348C3.43052 5.86103 3.44646 5.88486 3.46655 5.90492L5.79204 8.23042C6.00455 8.44222 6.059 8.76247 5.93412 9.03275C5.82179 9.27642 5.72409 9.52656 5.64155 9.78186C5.54656 10.0747 5.27518 10.2757 4.96512 10.2757H1.65614C1.59883 10.2757 1.54387 10.2985 1.50335 10.339C1.46283 10.3795 1.44006 10.4345 1.44005 10.4918V13.5079C1.44006 13.5652 1.46283 13.6202 1.50335 13.6607C1.54387 13.7013 1.59883 13.724 1.65614 13.724H5.04996C5.35116 13.724 5.61678 13.9138 5.71871 14.1948C5.80236 14.4254 5.89861 14.6512 6.00703 14.8713C6.1407 15.1442 6.08911 15.4725 5.87257 15.6891L3.46641 18.0952C3.38211 18.1794 3.38211 18.3161 3.46653 18.4005L5.59962 20.5334C5.68386 20.6177 5.8205 20.6177 5.90496 20.5333L8.31921 18.119C8.53519 17.9037 8.86238 17.8515 9.13439 17.9844C9.35237 18.0904 9.57591 18.1846 9.80405 18.2665C10.0855 18.3684 10.2758 18.634 10.2758 18.9357V22.3439C10.2758 22.4012 10.2986 22.4562 10.3391 22.4967C10.3796 22.5372 10.4346 22.56 10.4919 22.56H13.5082C13.5655 22.56 13.6205 22.5372 13.661 22.4967C13.7015 22.4562 13.7243 22.4012 13.7243 22.3439V19.0056C13.7243 18.6963 13.9243 18.4255 14.2161 18.3299C14.4642 18.2485 14.7074 18.153 14.9446 18.0437C15.2149 17.9188 15.5348 17.9731 15.7467 18.1851L18.0953 20.5334C18.1795 20.6177 18.3162 20.6177 18.4006 20.5333L20.5334 18.4007C20.6178 18.3162 20.6178 18.1794 20.5335 18.0951L18.2613 15.8229C18.0417 15.6026 17.9925 15.2676 18.1343 14.9933C18.2662 14.7377 18.3824 14.4711 18.4827 14.1941C18.5848 13.9134 18.8501 13.724 19.1509 13.724H22.3439C22.4012 13.724 22.4562 13.7013 22.4967 13.6608C22.5373 13.6202 22.56 13.5653 22.56 13.508V10.4918C22.56 10.4345 22.5373 10.3796 22.4967 10.339C22.4562 10.2985 22.4012 10.2757 22.3439 10.2757L22.3439 10.2757ZM22.3439 9.31571C22.9934 9.31571 23.52 9.84228 23.52 10.4918V13.5079C23.52 14.1575 22.9934 14.684 22.3439 14.684H19.3243C19.2471 14.8835 19.1616 15.0797 19.0682 15.2721L21.2123 17.4162C21.6714 17.8753 21.6714 18.6198 21.2123 19.0794L19.0795 21.2119C18.6203 21.6715 17.8753 21.6715 17.4162 21.2121L15.1896 18.9857C15.0235 19.0578 14.8549 19.1241 14.6842 19.1845V22.3439C14.6842 22.9934 14.1577 23.52 13.5081 23.52H10.4918C9.84225 23.52 9.31568 22.9934 9.31568 22.3439V19.1091C9.16627 19.0516 9.01869 18.9894 8.87316 18.9226L6.58371 21.2121C6.12432 21.6715 5.37961 21.6715 4.92061 21.2121L2.78766 19.0794C2.32826 18.62 2.32826 17.8753 2.78766 17.4163L5.06895 15.135C5.00016 14.9867 4.93613 14.8364 4.87697 14.684H1.65607C1.00655 14.684 0.47998 14.1575 0.47998 13.5079V10.4918C0.47998 9.84228 1.00655 9.31571 1.65607 9.31571H4.78552C4.84782 9.13733 4.91665 8.9613 4.99189 8.78797L2.78766 6.58375C2.32829 6.12437 2.32829 5.37976 2.78768 4.92036L4.92045 2.78783C5.37961 2.32827 6.12432 2.32827 6.58371 2.78769L8.70537 4.90935C8.90491 4.81231 9.10854 4.72395 9.31571 4.6445V1.6561C9.31571 1.00658 9.84228 0.480011 10.4918 0.480011H13.5082C14.1577 0.480011 14.6843 1.00658 14.6843 1.6561V4.56967C14.9133 4.65082 15.1383 4.74278 15.3587 4.84525L17.4161 2.78781C17.8753 2.32822 18.6203 2.32822 19.0793 2.78764L21.2124 4.9205C21.6714 5.37985 21.6714 6.12423 21.2123 6.58375L19.1462 8.6496C19.2463 8.86732 19.3361 9.0896 19.4154 9.31571H22.3439H22.3439ZM15.36 11.88C15.36 13.802 13.802 15.36 11.88 15.36C9.95796 15.36 8.4 13.802 8.4 11.88C8.4 9.95795 9.95796 8.39999 11.88 8.39999C13.802 8.39999 15.36 9.95795 15.36 11.88ZM14.4 11.88C14.4 10.4881 13.2719 9.35999 11.88 9.35999C10.4881 9.35999 9.36 10.4881 9.36 11.88C9.36 13.2718 10.4881 14.4 11.88 14.4C13.2719 14.4 14.4 13.2718 14.4 11.88Z" fill="#DAAEA8"/>
</g>
<defs>
<clipPath id="clip0_193_192">
<rect width="24" height="24" fill="white"/>
</clipPath>
</defs>
</svg>
