<svg width="26" height="26" viewBox="0 0 26 26" fill="none" xmlns="http://www.w3.org/2000/svg">
<path d="M1.0504 25.048C0.898998 25.0476 0.749954 25.0104 0.616119 24.9397C0.482285 24.8689 0.367675 24.7666 0.282171 24.6416C0.196667 24.5167 0.142835 24.3728 0.125314 24.2224C0.107794 24.072 0.127112 23.9197 0.181602 23.7784L4.3336 13.024C4.33847 13.0075 4.33847 12.99 4.3336 12.9736L0.181602 2.22159C0.114419 2.04794 0.100698 1.85816 0.142202 1.67664C0.183707 1.49512 0.278541 1.33016 0.414519 1.20296C0.550496 1.07576 0.721403 0.992118 0.905281 0.962793C1.08916 0.933468 1.2776 0.959796 1.4464 1.03839L25.3432 12.1552C25.5041 12.2308 25.6401 12.3506 25.7354 12.5006C25.8307 12.6506 25.8813 12.8247 25.8813 13.0024C25.8813 13.1801 25.8307 13.3542 25.7354 13.5042C25.6401 13.6542 25.5041 13.774 25.3432 13.8496L1.4464 24.9616C1.32206 25.0182 1.18705 25.0477 1.0504 25.048ZM1.0504 1.81359C1.04174 1.81396 1.03325 1.81606 1.02541 1.81977C1.01758 1.82348 1.01057 1.82873 1.0048 1.83519C0.994168 1.84399 0.986751 1.85607 0.983711 1.86953C0.980671 1.88299 0.982181 1.89708 0.988002 1.90959L5.14 12.664C5.22096 12.8807 5.22096 13.1193 5.14 13.336L1 24.0904C0.995623 24.1032 0.995052 24.1169 0.998359 24.13C1.00167 24.1431 1.00871 24.155 1.01863 24.1641C1.02855 24.1733 1.04092 24.1793 1.05423 24.1816C1.06754 24.1838 1.08122 24.1822 1.0936 24.1768L24.9904 13.0624C25.002 13.0566 25.0118 13.0478 25.0187 13.0367C25.0255 13.0257 25.0292 13.013 25.0292 13C25.0292 12.987 25.0255 12.9743 25.0187 12.9633C25.0118 12.9522 25.002 12.9433 24.9904 12.9376L1.0816 1.82079C1.07176 1.81642 1.06117 1.81397 1.0504 1.81359Z" fill="white"/>
</svg>
