<svg width="25" height="24" viewBox="0 0 25 24" fill="none" xmlns="http://www.w3.org/2000/svg">
<g clip-path="url(#clip0_203_678)">
<path d="M24.4291 12.3222H22.6401V7.89347C22.6401 7.87315 22.638 7.85333 22.6369 7.83331V4.42285C22.6369 4.19095 22.4417 4.00297 22.2007 4.00297H17.5756L13.577 0.154027C13.4952 0.0753069 13.3842 0.0310669 13.2685 0.0310669C13.1528 0.0310669 13.0419 0.0752936 12.96 0.154027L9.94497 3.05625L8.52758 1.69187C8.35719 1.52791 8.08102 1.52791 7.91063 1.69187L5.50684 4.00567C5.49096 4.00397 5.47483 4.00297 5.45847 4.00297H0.504324C0.263399 4.00297 0.0681152 4.19095 0.0681152 4.42285V8.89161C0.0681152 8.90532 0.0689048 8.91885 0.0702484 8.9322V22.8293C0.0702484 23.4577 0.601398 23.9689 1.25425 23.9689H21.4561C22.109 23.9689 22.6401 23.4577 22.6401 22.8293V18.4006H24.4291C24.67 18.4006 24.8653 18.2126 24.8653 17.9807V12.7421C24.8653 12.5102 24.67 12.3222 24.4291 12.3222ZM21.7645 4.84275V6.79437C21.666 6.76871 21.5629 6.75377 21.4561 6.75377H20.4333L18.4479 4.84275H21.7645ZM13.2685 1.04475L19.1995 6.75377H17.8755L12.6065 1.68196L13.2685 1.04475ZM11.9896 2.27583L16.6416 6.75379H13.7864L10.5619 3.65005L11.9896 2.27583ZM8.2191 2.58259L9.32808 3.65004L9.94497 4.24384L12.5525 6.75377H11.3635L7.62462 3.15483L8.2191 2.58259ZM10.1296 6.75377H3.88571L7.00766 3.74869L10.1296 6.75377ZM2.65186 6.75377H1.25425C1.1455 6.75377 1.04065 6.76912 0.940546 6.79565V4.84275H4.63722L2.65186 6.75377ZM21.7677 22.8293C21.7677 22.9946 21.6279 23.1292 21.4561 23.1292H1.25425C1.08246 23.1292 0.94268 22.9946 0.94268 22.8293V7.89347C0.94268 7.72811 1.08246 7.59355 1.25425 7.59355H21.4561C21.6172 7.59355 21.7486 7.71228 21.7645 7.86329V8.89163C21.7645 8.90809 21.7658 8.92432 21.7677 8.94031V12.3222H17.8028C16.0619 12.3222 14.6455 13.6856 14.6455 15.3613C14.6455 17.0372 16.0619 18.4006 17.8028 18.4006H21.7677L21.7677 22.8293ZM23.9929 17.5608H22.6401H21.7677H17.8028C16.543 17.5608 15.5179 16.5741 15.5179 15.3613C15.5179 14.1486 16.543 13.162 17.8028 13.162H21.7677H22.6401H23.9929V17.5608Z" fill="#DAAEA8"/>
<path d="M17.8236 13.9217C16.9989 13.9217 16.328 14.5675 16.328 15.3613C16.328 16.1551 16.9989 16.8009 17.8236 16.8009C18.6482 16.8009 19.3192 16.1551 19.3192 15.3613C19.3192 14.5675 18.6482 13.9217 17.8236 13.9217ZM17.8236 15.9612C17.48 15.9612 17.2004 15.692 17.2004 15.3613C17.2004 15.0306 17.48 14.7615 17.8236 14.7615C18.1672 14.7615 18.4468 15.0306 18.4468 15.3613C18.4468 15.692 18.1672 15.9612 17.8236 15.9612Z" fill="#DAAEA8"/>
</g>
<defs>
<clipPath id="clip0_203_678">
<rect width="24.9333" height="24" fill="white"/>
</clipPath>
</defs>
</svg>
