<svg width="25" height="24" viewBox="0 0 25 24" fill="none" xmlns="http://www.w3.org/2000/svg">
<g clip-path="url(#clip0_260_1144)">
<path d="M24.4291 12.3222H22.6401V7.89341C22.6401 7.87309 22.638 7.85327 22.6369 7.83325V4.42279C22.6369 4.19089 22.4417 4.00291 22.2007 4.00291H17.5756L13.577 0.153966C13.4952 0.0752459 13.3842 0.0310059 13.2685 0.0310059C13.1528 0.0310059 13.0419 0.0752325 12.96 0.153966L9.94497 3.05619L8.52758 1.69181C8.35719 1.52785 8.08102 1.52785 7.91063 1.69181L5.50684 4.00561C5.49096 4.00391 5.47483 4.00291 5.45847 4.00291H0.504324C0.263399 4.00291 0.0681152 4.19089 0.0681152 4.42279V8.89155C0.0681152 8.90526 0.0689048 8.91879 0.0702484 8.93214V22.8292C0.0702484 23.4576 0.601398 23.9689 1.25425 23.9689H21.4561C22.109 23.9689 22.6401 23.4576 22.6401 22.8292V18.4005H24.4291C24.67 18.4005 24.8653 18.2125 24.8653 17.9806V12.742C24.8653 12.5101 24.67 12.3222 24.4291 12.3222ZM21.7645 4.84269V6.79431C21.666 6.76865 21.5629 6.75371 21.4561 6.75371H20.4333L18.4479 4.84269H21.7645ZM13.2685 1.04469L19.1995 6.75371H17.8755L12.6065 1.6819L13.2685 1.04469ZM11.9896 2.27577L16.6416 6.75373H13.7864L10.5619 3.64999L11.9896 2.27577ZM8.2191 2.58253L9.32808 3.64998L9.94497 4.24378L12.5525 6.75371H11.3635L7.62462 3.15477L8.2191 2.58253ZM10.1296 6.75371H3.88571L7.00766 3.74863L10.1296 6.75371ZM2.65186 6.75371H1.25425C1.1455 6.75371 1.04065 6.76906 0.940546 6.79559V4.84269H4.63722L2.65186 6.75371ZM21.7677 22.8292C21.7677 22.9946 21.6279 23.1291 21.4561 23.1291H1.25425C1.08246 23.1291 0.94268 22.9946 0.94268 22.8292V7.89341C0.94268 7.72805 1.08246 7.59349 1.25425 7.59349H21.4561C21.6172 7.59349 21.7486 7.71222 21.7645 7.86323V8.89157C21.7645 8.90803 21.7658 8.92426 21.7677 8.94025V12.3222H17.8028C16.0619 12.3222 14.6455 13.6855 14.6455 15.3613C14.6455 17.0371 16.0619 18.4005 17.8028 18.4005H21.7677L21.7677 22.8292ZM23.9929 17.5608H22.6401H21.7677H17.8028C16.543 17.5608 15.5179 16.5741 15.5179 15.3613C15.5179 14.1485 16.543 13.1619 17.8028 13.1619H21.7677H22.6401H23.9929V17.5608Z" fill="#DAAEA8"/>
<path d="M17.8236 13.9216C16.9989 13.9216 16.328 14.5675 16.328 15.3612C16.328 16.155 16.9989 16.8008 17.8236 16.8008C18.6482 16.8008 19.3192 16.155 19.3192 15.3612C19.3192 14.5674 18.6482 13.9216 17.8236 13.9216ZM17.8236 15.9611C17.48 15.9611 17.2004 15.692 17.2004 15.3612C17.2004 15.0305 17.48 14.7614 17.8236 14.7614C18.1672 14.7614 18.4468 15.0305 18.4468 15.3612C18.4468 15.692 18.1672 15.9611 17.8236 15.9611Z" fill="#DAAEA8"/>
</g>
<defs>
<clipPath id="clip0_260_1144">
<rect width="24.9333" height="24" fill="white"/>
</clipPath>
</defs>
</svg>
