<svg width="25" height="24" viewBox="0 0 25 24" fill="none" xmlns="http://www.w3.org/2000/svg">
<g clip-path="url(#clip0_329_725)">
<path d="M24.4288 12.3222H22.6399V7.89341C22.6399 7.87309 22.6378 7.85327 22.6367 7.83325V4.42279C22.6367 4.19089 22.4414 4.00291 22.2005 4.00291H17.5754L13.5768 0.153966C13.4949 0.0752459 13.384 0.0310059 13.2683 0.0310059C13.1526 0.0310059 13.0417 0.0752325 12.9598 0.153966L9.94473 3.05619L8.52734 1.69181C8.35694 1.52785 8.08078 1.52785 7.91039 1.69181L5.50659 4.00561C5.49072 4.00391 5.47458 4.00291 5.45822 4.00291H0.50408C0.263154 4.00291 0.0678711 4.19089 0.0678711 4.42279V8.89155C0.0678711 8.90526 0.0686606 8.91879 0.0700043 8.93214V22.8292C0.0700043 23.4576 0.601153 23.9689 1.25401 23.9689H21.4559C22.1087 23.9689 22.6399 23.4576 22.6399 22.8292V18.4005H24.4288C24.6698 18.4005 24.865 18.2125 24.865 17.9806V12.742C24.865 12.5101 24.6698 12.3222 24.4288 12.3222ZM21.7643 4.84269V6.79431C21.6657 6.76865 21.5626 6.75371 21.4558 6.75371H20.433L18.4477 4.84269H21.7643ZM13.2683 1.04469L19.1993 6.75371H17.8753L12.6063 1.6819L13.2683 1.04469ZM11.9894 2.27577L16.6414 6.75373H13.7861L10.5617 3.64999L11.9894 2.27577ZM8.21885 2.58253L9.32783 3.64998L9.94473 4.24378L12.5523 6.75371H11.3633L7.62438 3.15477L8.21885 2.58253ZM10.1294 6.75371H3.88547L7.00741 3.74863L10.1294 6.75371ZM2.65162 6.75371H1.25401C1.14525 6.75371 1.04041 6.76906 0.940302 6.79559V4.84269H4.63697L2.65162 6.75371ZM21.7674 22.8292C21.7674 22.9946 21.6276 23.1291 21.4559 23.1291H1.25401C1.08221 23.1291 0.942436 22.9946 0.942436 22.8292V7.89341C0.942436 7.72805 1.08221 7.59349 1.25401 7.59349H21.4559C21.6169 7.59349 21.7483 7.71222 21.7643 7.86323V8.89157C21.7643 8.90803 21.7656 8.92426 21.7674 8.94025V12.3222H17.8026C16.0616 12.3222 14.6452 13.6855 14.6452 15.3613C14.6452 17.0371 16.0616 18.4005 17.8026 18.4005H21.7674L21.7674 22.8292ZM23.9926 17.5608H22.6399H21.7674H17.8026C16.5427 17.5608 15.5177 16.5741 15.5177 15.3613C15.5177 14.1485 16.5427 13.1619 17.8026 13.1619H21.7674H22.6399H23.9926V17.5608Z" fill="#DAAEA8"/>
<path d="M17.8232 13.9216C16.9986 13.9216 16.3276 14.5675 16.3276 15.3612C16.3276 16.155 16.9986 16.8008 17.8232 16.8008C18.6479 16.8008 19.3188 16.155 19.3188 15.3612C19.3188 14.5674 18.6479 13.9216 17.8232 13.9216ZM17.8232 15.9611C17.4796 15.9611 17.2001 15.692 17.2001 15.3612C17.2001 15.0305 17.4796 14.7614 17.8232 14.7614C18.1668 14.7614 18.4464 15.0305 18.4464 15.3612C18.4464 15.692 18.1668 15.9611 17.8232 15.9611Z" fill="#DAAEA8"/>
</g>
<defs>
<clipPath id="clip0_329_725">
<rect width="24.9333" height="24" fill="white"/>
</clipPath>
</defs>
</svg>
