<svg width="25" height="24" viewBox="0 0 25 24" fill="none" xmlns="http://www.w3.org/2000/svg">
<g clip-path="url(#clip0_193_185)">
<path d="M24.429 12.3222H22.6401V7.89347C22.6401 7.87315 22.638 7.85333 22.6369 7.83331V4.42285C22.6369 4.19095 22.4416 4.00297 22.2007 4.00297H17.5756L13.577 0.154027C13.4951 0.0753069 13.3842 0.0310669 13.2685 0.0310669C13.1528 0.0310669 13.0419 0.0752936 12.96 0.154027L9.94494 3.05625L8.52755 1.69187C8.35716 1.52791 8.08099 1.52791 7.9106 1.69187L5.50681 4.00567C5.49093 4.00397 5.4748 4.00297 5.45844 4.00297H0.504293C0.263368 4.00297 0.0680847 4.19095 0.0680847 4.42285V8.89161C0.0680847 8.90532 0.0688743 8.91885 0.0702179 8.9322V22.8293C0.0702179 23.4577 0.601367 23.9689 1.25422 23.9689H21.4561C22.1089 23.9689 22.6401 23.4577 22.6401 22.8293V18.4006H24.429C24.67 18.4006 24.8653 18.2126 24.8653 17.9807V12.7421C24.8653 12.5102 24.67 12.3222 24.429 12.3222ZM21.7645 4.84275V6.79437C21.666 6.76871 21.5629 6.75377 21.456 6.75377H20.4333L18.4479 4.84275H21.7645ZM13.2685 1.04475L19.1995 6.75377H17.8755L12.6065 1.68196L13.2685 1.04475ZM11.9896 2.27583L16.6416 6.75379H13.7863L10.5619 3.65005L11.9896 2.27583ZM8.21907 2.58259L9.32805 3.65004L9.94494 4.24384L12.5525 6.75377H11.3635L7.62459 3.15483L8.21907 2.58259ZM10.1296 6.75377H3.88568L7.00763 3.74869L10.1296 6.75377ZM2.65183 6.75377H1.25422C1.14547 6.75377 1.04062 6.76912 0.940516 6.79565V4.84275H4.63719L2.65183 6.75377ZM21.7676 22.8293C21.7676 22.9946 21.6279 23.1292 21.4561 23.1292H1.25422C1.08243 23.1292 0.942649 22.9946 0.942649 22.8293V7.89347C0.942649 7.72811 1.08243 7.59355 1.25422 7.59355H21.4561C21.6172 7.59355 21.7485 7.71228 21.7645 7.86329V8.89163C21.7645 8.90809 21.7658 8.92432 21.7677 8.94031V12.3222H17.8028C16.0618 12.3222 14.6454 13.6856 14.6454 15.3613C14.6454 17.0372 16.0619 18.4006 17.8028 18.4006H21.7677L21.7676 22.8293ZM23.9928 17.5608H22.6401H21.7677H17.8028C16.5429 17.5608 15.5179 16.5741 15.5179 15.3613C15.5179 14.1486 16.5429 13.162 17.8028 13.162H21.7677H22.6401H23.9928V17.5608Z" fill="#DAAEA8"/>
<path d="M17.8235 13.9217C16.9989 13.9217 16.3279 14.5675 16.3279 15.3613C16.3279 16.1551 16.9989 16.8009 17.8235 16.8009C18.6482 16.8009 19.3191 16.1551 19.3191 15.3613C19.3191 14.5675 18.6482 13.9217 17.8235 13.9217ZM17.8235 15.9612C17.4799 15.9612 17.2004 15.692 17.2004 15.3613C17.2004 15.0306 17.4799 14.7615 17.8235 14.7615C18.1671 14.7615 18.4467 15.0306 18.4467 15.3613C18.4467 15.692 18.1671 15.9612 17.8235 15.9612Z" fill="#DAAEA8"/>
</g>
<defs>
<clipPath id="clip0_193_185">
<rect width="24.9333" height="24" fill="white"/>
</clipPath>
</defs>
</svg>
