<svg width="25" height="24" viewBox="0 0 25 24" fill="none" xmlns="http://www.w3.org/2000/svg">
<g clip-path="url(#clip0_239_277)">
<path d="M24.429 12.3222H22.6401V7.89341C22.6401 7.87309 22.638 7.85327 22.6369 7.83325V4.42279C22.6369 4.19089 22.4416 4.00291 22.2007 4.00291H17.5756L13.577 0.153966C13.4951 0.0752459 13.3842 0.0310059 13.2685 0.0310059C13.1528 0.0310059 13.0419 0.0752325 12.96 0.153966L9.94494 3.05619L8.52755 1.69181C8.35716 1.52785 8.08099 1.52785 7.9106 1.69181L5.50681 4.00561C5.49093 4.00391 5.4748 4.00291 5.45844 4.00291H0.504293C0.263368 4.00291 0.0680847 4.19089 0.0680847 4.42279V8.89155C0.0680847 8.90526 0.0688743 8.91879 0.0702179 8.93214V22.8292C0.0702179 23.4576 0.601367 23.9689 1.25422 23.9689H21.4561C22.1089 23.9689 22.6401 23.4576 22.6401 22.8292V18.4005H24.429C24.67 18.4005 24.8653 18.2125 24.8653 17.9806V12.742C24.8653 12.5101 24.67 12.3222 24.429 12.3222ZM21.7645 4.84269V6.79431C21.666 6.76865 21.5629 6.75371 21.456 6.75371H20.4333L18.4479 4.84269H21.7645ZM13.2685 1.04469L19.1995 6.75371H17.8755L12.6065 1.6819L13.2685 1.04469ZM11.9896 2.27577L16.6416 6.75373H13.7863L10.5619 3.64999L11.9896 2.27577ZM8.21907 2.58253L9.32805 3.64998L9.94494 4.24378L12.5525 6.75371H11.3635L7.62459 3.15477L8.21907 2.58253ZM10.1296 6.75371H3.88568L7.00763 3.74863L10.1296 6.75371ZM2.65183 6.75371H1.25422C1.14547 6.75371 1.04062 6.76906 0.940516 6.79559V4.84269H4.63719L2.65183 6.75371ZM21.7676 22.8292C21.7676 22.9946 21.6279 23.1291 21.4561 23.1291H1.25422C1.08243 23.1291 0.942649 22.9946 0.942649 22.8292V7.89341C0.942649 7.72805 1.08243 7.59349 1.25422 7.59349H21.4561C21.6172 7.59349 21.7485 7.71222 21.7645 7.86323V8.89157C21.7645 8.90803 21.7658 8.92426 21.7677 8.94025V12.3222H17.8028C16.0618 12.3222 14.6454 13.6855 14.6454 15.3613C14.6454 17.0371 16.0619 18.4005 17.8028 18.4005H21.7677L21.7676 22.8292ZM23.9928 17.5608H22.6401H21.7677H17.8028C16.5429 17.5608 15.5179 16.5741 15.5179 15.3613C15.5179 14.1485 16.5429 13.1619 17.8028 13.1619H21.7677H22.6401H23.9928V17.5608Z" fill="#DAAEA8"/>
<path d="M17.8235 13.9216C16.9989 13.9216 16.3279 14.5675 16.3279 15.3612C16.3279 16.155 16.9989 16.8008 17.8235 16.8008C18.6482 16.8008 19.3191 16.155 19.3191 15.3612C19.3191 14.5674 18.6482 13.9216 17.8235 13.9216ZM17.8235 15.9611C17.4799 15.9611 17.2004 15.692 17.2004 15.3612C17.2004 15.0305 17.4799 14.7614 17.8235 14.7614C18.1671 14.7614 18.4467 15.0305 18.4467 15.3612C18.4467 15.692 18.1671 15.9611 17.8235 15.9611Z" fill="#DAAEA8"/>
</g>
<defs>
<clipPath id="clip0_239_277">
<rect width="24.9333" height="24" fill="white"/>
</clipPath>
</defs>
</svg>
